<?xml version="1.0" standalone="no"?>
<!DOCTYPE svg PUBLIC "-//W3C//DTD SVG 1.1//EN" "http://www.w3.org/Graphics/SVG/1.1/DTD/svg11.dtd" >
<svg xmlns="http://www.w3.org/2000/svg">
<metadata>
This is a custom SVG font generated by IcoMoon.
<iconset grid="14"></iconset>
</metadata>
<defs>
<font id="icomoon" horiz-adv-x="448" >
<font-face units-per-em="448" ascent="384" descent="-64" />
<missing-glyph horiz-adv-x="448" />
<glyph unicode="&#xe000;" d="M0-64l 224,0 L 224,384 L0,384 L0-64 z M 140,328l 56,0 l0-56 l-56,0 L 140,328 z M 140,216l 56,0 l0-56 l-56,0 L 140,216 z M 140,104l 56,0 l0-56 l-56,0 L 140,104 z M 28,328l 56,0 l0-56 L 28,272 L 28,328 z M 28,216
			l 56,0 l0-56 L 28,160 L 28,216 z M 28,104l 56,0 l0-56 L 28,48 L 28,104 zM 252,244L 448,244L 448,216L 252,216zM 252-64L 308-64L 308,48L 392,48L 392-64L 448-64L 448,188L 252,188 		z"  />
<glyph unicode="&#xe001;" d="M 251.998,244L 307.997,188.001L 196,76.004L 140.001,132.003zM 438.168,253.842l-32.163,32.163l-14.004-14.004c-7.165-7.166-17.067-11.598-28-11.598
		c-21.87,0-39.6,17.728-39.6,39.598c0,10.938, 4.436,20.842, 11.609,28.008l 13.995,13.994l-32.164,32.163
		c-13.111,13.111-34.566,13.111-47.677,0L 9.833,113.838c-13.11-13.111-13.11-34.567,0-47.677l 32.165-32.164l 13.983,13.984
		c 7.167,7.178, 17.076,11.617, 28.019,11.617c 21.87,0, 39.598-17.729, 39.598-39.598c0-10.94-4.436-20.843-11.609-28.010l-13.993-13.994
		l 32.163-32.164c 13.11-13.11, 34.566-13.11, 47.677,0l 260.33,260.33C 451.277,219.276, 451.277,240.731, 438.168,253.842z
		 M 196.001,20.002l-112,112l 168,168l 112-112L 196.001,20.002z"  />
<glyph unicode="&#xe002;" d="M 288.201,56.201L 196,148.402L 196,272L 252,272L 252,171.598L 327.799,95.799 	zM 224,384C 100.288,384,0,283.712,0,160s 100.288-224, 224-224s 224,100.288, 224,224S 347.712,384, 224,384z M 224-8
		c-92.784,0-168,75.216-168,168c0,92.784, 75.216,168, 168,168c 92.784,0, 168-75.216, 168-168C 392,67.216, 316.784-8, 224-8z"  />
<glyph unicode="&#xe003;" d="M 224,384C 100.288,384,0,283.712,0,160s 100.288-224, 224-224s 224,100.288, 224,224S 347.712,384, 224,384z M 288.201,56.201L 196,148.402
		L 196,272 l 56,0 l0-100.402 l 75.799-75.799L 288.201,56.201z"  />
<glyph unicode="&#xe004;" d="M 272.486,76.553c-9.673,1.539-9.894,28.137-9.894,28.137s 28.424,28.138, 34.618,65.976
	c 16.664,0, 26.958,40.226, 10.291,54.38C 308.198,239.944, 328.922,342, 224,342c-104.922,0-84.197-102.056-83.503-116.954
	c-16.666-14.153-6.374-54.38, 10.291-54.38c 6.194-37.838, 34.618-65.976, 34.618-65.976s-0.221-26.598-9.894-28.137
	C 144.354,71.595, 28,20.276, 28-36l 196,0 l 196,0 C 420,20.276, 303.646,71.595, 272.486,76.553z"  />
<glyph unicode="&#xe005;" d="M 321.56,31.649c-8.292,1.307-8.48,23.911-8.48,23.911s 24.364,23.912, 29.673,56.066
	c 14.285,0, 23.106,34.185, 8.822,46.212c 0.596,12.661, 18.361,99.389-71.574,99.389c-89.934,0-72.169-86.728-71.574-99.389
	c-14.286-12.027-5.463-46.212, 8.821-46.212c 5.309-32.154, 29.674-56.066, 29.674-56.066s-0.189-22.604-8.48-23.911
	C 211.732,27.435, 112-16.177, 112-64l 168,0 l 168,0 C 448-16.177, 348.268,27.435, 321.56,31.649zM 150.524,24.021c 19.291,11.878, 42.711,22.885, 61.923,29.498c-6.892,9.814-14.566,23.16-19.394,38.965
	c-6.74,5.498-12.226,13.358-15.749,23.013c-3.529,9.671-4.866,20.498-3.766,30.487c 0.789,7.171, 2.834,13.854, 5.972,19.726
	c-1.903,20.381-3.244,60.39, 22.946,89.57c 10.156,11.316, 22.993,19.451, 38.369,24.363C 238.079,307.975, 223.691,341.229, 168,341.229
	c-89.934,0-72.169-86.728-71.574-99.389c-14.286-12.027-5.463-46.212, 8.821-46.212c 5.309-32.154, 29.674-56.066, 29.674-56.066
	s-0.189-22.604-8.48-23.911C 99.732,111.435,0,67.823,0,20l 144.198,0 C 146.259,21.345, 148.357,22.686, 150.524,24.021z"  />
<glyph unicode="&#xe006;" d="M 371-64L 77-64 c-11.598,0-21,9.402-21,21c0,30.127, 12.717,66.589, 34.019,97.537c 17.803,25.864, 39.674,45.334, 63.297,56.704
		c-10.412,9.469-19.379,21.011-26.472,34.178c-11.375,21.115-17.389,45.521-17.389,70.581c0,34.828, 11.464,67.735, 32.281,92.658
		C 163.464,334.673, 192.679,349, 224,349s 60.536-14.327, 82.265-40.342c 20.816-24.924, 32.281-57.83, 32.281-92.658
		c0-25.060-6.013-49.466-17.388-70.581c-7.094-13.167-16.061-24.709-26.473-34.178c 23.622-11.371, 45.494-30.84, 63.297-56.704
		C 379.283,23.589, 392-12.873, 392-43C 392-54.598, 382.598-64, 371-64z M 100.657-22l 246.685,0 
		c-4.036,17.211-12.477,36.043-23.958,52.723c-18.136,26.349-40.764,43.585-63.717,48.53c-9.671,2.084-16.576,10.636-16.576,20.529
		l0,15.003 c0,7.551, 4.054,14.521, 10.618,18.253c 26.022,14.802, 42.837,47.366, 42.837,82.961c0,50.178-32.543,91-72.545,91
		c-40.002,0-72.545-40.822-72.545-91c0-35.595, 16.815-68.159, 42.837-82.961c 6.563-3.734, 10.617-10.702, 10.617-18.253l0-15.003 
		c0-9.894-6.905-18.445-16.576-20.529c-22.952-4.946-45.581-22.181-63.717-48.53C 113.134,14.043, 104.695-4.789, 100.657-22z"  />
<glyph unicode="&#xe007;" d="M 427-64L 133-64 c-11.598,0-21,9.402-21,21c0,30.127, 12.717,66.589, 34.019,97.537c 17.803,25.864, 39.674,45.334, 63.297,56.704
		c-10.412,9.469-19.379,21.011-26.472,34.178c-11.375,21.115-17.389,45.521-17.389,70.581c0,34.828, 11.464,67.735, 32.281,92.658
		C 219.464,334.673, 248.679,349, 280,349s 60.536-14.327, 82.265-40.342c 20.816-24.924, 32.281-57.83, 32.281-92.658
		c0-25.060-6.013-49.466-17.388-70.581c-7.094-13.167-16.061-24.709-26.473-34.178c 23.622-11.371, 45.494-30.84, 63.297-56.704
		C 435.283,23.589, 448-12.873, 448-43C 448-54.598, 438.598-64, 427-64z M 156.657-22l 246.685,0 
		c-4.036,17.211-12.477,36.043-23.958,52.723c-18.136,26.349-40.764,43.585-63.717,48.53c-9.671,2.084-16.576,10.636-16.576,20.529
		l0,15.003 c0,7.551, 4.054,14.521, 10.618,18.253c 26.022,14.802, 42.837,47.366, 42.837,82.961c0,50.178-32.543,91-72.545,91
		s-72.545-40.822-72.545-91c0-35.595, 16.815-68.159, 42.837-82.961c 6.563-3.734, 10.617-10.702, 10.617-18.253l0-15.003 
		c0-9.894-6.905-18.445-16.576-20.529c-22.952-4.946-45.581-22.181-63.717-48.53C 169.134,14.043, 160.695-4.789, 156.657-22zM 86.237,6l-41.58,0 c 4.037,17.211, 12.477,36.043, 23.957,52.723c 18.137,26.349, 40.765,43.585, 63.717,48.53
		c 9.671,2.084, 16.576,10.636, 16.576,20.529l0,15.003 c0,7.551-4.054,14.521-10.617,18.253c-26.022,14.802-42.837,47.366-42.837,82.961
		c0,50.178, 32.543,91, 72.545,91c 2.736,0, 5.436-0.198, 8.095-0.57c 11.532,12.834, 24.602,23.264, 38.781,31.064
		C 200.353,373.034, 184.468,377, 168,377c-31.321,0-60.536-14.327-82.265-40.342C 64.919,311.735, 53.455,278.828, 53.455,244
		c0-25.060, 6.013-49.466, 17.389-70.581c 7.094-13.167, 16.061-24.708, 26.472-34.178c-23.622-11.371-45.494-30.84-63.297-56.704
		C 12.717,51.589,0,15.127,0-15c0-11.598, 9.402-21, 21-21l 57.919,0 C 79.565-22.426, 82.068-8.257, 86.237,6z"  />
<glyph unicode="&#xe008;" d="M 434.115,2.764L 327.998,93.018c-10.97,9.873-22.702,14.405-32.179,13.968C 320.869,136.328, 336,174.395, 336,216
		C 336,308.784, 260.784,384, 168,384C 75.217,384,0,308.784,0,216c0-92.784, 75.216-168, 168-168c 41.605,0, 79.672,15.131, 109.014,40.182
		c-0.438-9.477, 4.095-21.209, 13.968-32.179l 90.254-106.117c 15.453-17.17, 40.697-18.617, 56.096-3.218S 451.285-12.689, 434.115,2.764
		z M 168,104c-61.855,0-112,50.145-112,112S 106.145,328, 168,328s 112-50.145, 112-112S 229.856,104, 168,104zM 196,300L 140,300L 140,244L 84,244L 84,188L 140,188L 140,132L 196,132L 196,188L 252,188L 252,244L 196,244 	z"  />
<glyph unicode="&#xe009;" d="M 434.115,2.764L 327.998,93.018c-10.97,9.873-22.702,14.405-32.179,13.968C 320.869,136.328, 336,174.395, 336,216
		C 336,308.784, 260.784,384, 168,384C 75.217,384,0,308.784,0,216c0-92.784, 75.216-168, 168-168c 41.605,0, 79.672,15.131, 109.014,40.182
		c-0.438-9.477, 4.095-21.209, 13.968-32.179l 90.254-106.117c 15.453-17.17, 40.697-18.617, 56.096-3.218S 451.285-12.689, 434.115,2.764
		z M 168,104c-61.855,0-112,50.145-112,112S 106.145,328, 168,328s 112-50.145, 112-112S 229.856,104, 168,104zM 84,244L 252,244L 252,188L 84,188z"  />
<glyph unicode="&#xe00a;" d="M 434.115,2.764L 327.998,93.018c-10.97,9.873-22.702,14.405-32.179,13.968C 320.869,136.328, 336,174.395, 336,216
	C 336,308.784, 260.784,384, 168,384C 75.217,384,0,308.784,0,216c0-92.784, 75.216-168, 168-168c 41.605,0, 79.672,15.131, 109.014,40.182
	c-0.438-9.477, 4.095-21.209, 13.968-32.179l 90.254-106.117c 15.453-17.17, 40.697-18.617, 56.096-3.218S 451.285-12.689, 434.115,2.764z
	 M 168,104c-61.855,0-112,50.145-112,112S 106.145,328, 168,328s 112-50.145, 112-112S 229.856,104, 168,104z"  />
<glyph unicode="&#xe00b;" d="M 337.538,244c 7.93,5.635, 15.537,11.907, 22.507,18.877c 14.613,14.613, 24.389,32.594, 27.524,50.628
	c 3.438,19.769-1.607,38.124-13.838,50.356c-9.756,9.755-22.973,14.913-38.222,14.913c-21.714,0-44.591-10.423-62.764-28.596
	c-29.083-29.083-46.036-69.229-55.158-97.878c-6.755,28.788-20.215,67.657-46.383,93.825C 157.163,360.166, 139.217,367.375, 122.272,367.375
	c-13.849,0-27.029-4.814-36.864-14.65c-21.869-21.87-18.914-60.281, 6.6-85.796c 9.097-9.097, 19.73-16.652, 30.94-22.93L 28,243.999 l0-112 
	l 28,0 l0-196 l 336,0 L 392,132 l 28,0 L 420,244 L 337.538,244 z M 295.018,327.905c 12.129,12.129, 27.266,19.37, 40.491,19.37c 4.681,0, 11.247-0.986, 15.947-5.687
	c 11.388-11.387, 4.993-37.76-13.685-56.437c-19.226-19.226-45.089-32.449-67.564-41.151l-22.169,0 
	C 256.161,269.177, 270.813,303.7, 295.018,327.905z M 102.346,313.611c-0.307,3.99-0.022,11.484, 5.336,16.841
	C 112.164,334.934, 118.089,335.875, 122.272,335.875l0,0 c 9.3,0, 19.017-4.382, 26.658-12.023c 14.819-14.819, 27.023-38.4, 35.292-68.196
	c 0.223-0.805, 0.441-1.606, 0.654-2.4c-0.794,0.213-1.595,0.43-2.4,0.654c-29.796,8.271-53.376,20.474-68.195,35.293
	C 107.356,296.128, 103.007,305.024, 102.346,313.611z M 196-36L 84-36 L 84,146 l 112,0 L 196-36 z M 196,160L 56,160 l0,56 l 140,0 L 196,160 z M 364-36L 252-36 L 252,146 l 112,0 L 364-36 z
	 M 392,160L 252,160 l0,56 l 140,0 L 392,160 z"  />
<glyph unicode="&#xe00c;" d="M0,328L 56,328L 56,48L0,48zM 84,328L 112,328L 112,48L 84,48zM 140,328L 168,328L 168,48L 140,48zM 224,328L 252,328L 252,48L 224,48zM 336,328L 364,328L 364,48L 336,48zM 420,328L 448,328L 448,48L 420,48zM 280,328L 294,328L 294,48L 280,48zM 196,328L 210,328L 210,48L 196,48zM 378,328L 392,328L 392,48L 378,48zM0,20L 28,20L 28-8L0-8zM 84,20L 112,20L 112-8L 84-8zM 140,20L 168,20L 168-8L 140-8zM 280,20L 308,20L 308-8L 280-8zM 420,20L 448,20L 448-8L 420-8zM 336,20L 392,20L 392-8L 336-8zM 196,20L 252,20L 252-8L 196-8z"  />
<glyph unicode="&#xe00d;" d="M 406,328L 42,328 C 18.9,328,0,309.1,0,286l0-252 c0-23.1, 18.9-42, 42-42l 364,0 c 23.1,0, 42,18.9, 42,42L 448,286 C 448,309.1, 429.1,328, 406,328z M 42,300
		l 364,0 c 7.589,0, 14-6.411, 14-14l0-42 L 28,244 l0,42 C 28,293.589, 34.411,300, 42,300z M 406,20L 42,20 c-7.589,0-14,6.411-14,14L 28,160 l 392,0 l0-126 
		C 420,26.411, 413.589,20, 406,20zM 56,104L 84,104L 84,48L 56,48zM 112,104L 140,104L 140,48L 112,48zM 168,104L 196,104L 196,48L 168,48z"  />
<glyph unicode="&#xe00e;" d="M 210,356C 94.020,356,0,261.98,0,146c0-115.98, 94.020-210, 210-210c 115.98,0, 210,94.020, 210,210
		C 420,261.98, 325.98,356, 210,356z M 210-22c-92.784,0-168,75.216-168,168c0,92.784, 75.216,168, 168,168
		c 92.784,0, 168-75.216, 168-168C 378,53.216, 302.784-22, 210-22zM 224,160l0,56 l 56,0 l0,28 l-56,0 l0,28 l-28,0 l0-28 l-56,0 l0-112 l 56,0 l0-56 l-56,0 l0-28 l 56,0 l0-28 l 28,0 l0,28 l 56,0 l 0.001,0 L 280,160L 224,160 z M 196,160l-28,0 l0,56 l 28,0 L 196,160 z
	 M 252.001,76L 224,76 l0,56 l 28.001,0 L 252.001,76 z"  />
<glyph unicode="&#xe00f;" d="M 224,384C 146.68,384, 84,321.32, 84,244c0-140, 140-308, 140-308s 140,168, 140,308C 364,321.32, 301.319,384, 224,384z M 224,160
	c-46.393,0-84,37.607-84,84s 37.607,84, 84,84s 84-37.607, 84-84S 270.392,160, 224,160z"  />
<glyph unicode="&#xe010;" d="M 224,384C 146.68,384, 84,321.32, 84,244c0-140, 140-308, 140-308s 140,168, 140,308C 364,321.32, 301.319,384, 224,384z M 224,158.25
	c-47.358,0-85.75,38.392-85.75,85.75s 38.392,85.75, 85.75,85.75s 85.75-38.392, 85.75-85.75S 271.359,158.25, 224,158.25zM 169.75,244A54.25,54.25 1260 1 1 278.25,244A54.25,54.25 1260 1 1 169.75,244z"  />
<glyph unicode="&#xe011;" d="M 448,117.959l0,84.082 l-64.214,10.702c-2.607,7.933-5.785,15.605-9.491,22.969l 37.824,52.952l-59.454,59.455l-52.861-37.758
		c-7.398,3.742-15.11,6.951-23.086,9.582L 266.041,384l-84.082,0 l-10.676-64.057c-7.976-2.631-15.688-5.84-23.085-9.582
		l-52.862,37.758l-59.455-59.455l 37.824-52.953c-3.706-7.363-6.884-15.035-9.49-22.968L0,202.041l0-84.082 l 64.364-10.727
		c 2.607-7.861, 5.779-15.465, 9.468-22.763l-37.952-53.133l 59.455-59.454l 53.224,38.016c 7.263-3.653, 14.827-6.793, 22.647-9.377
		L 181.959-64l 84.082,0 l 10.753,64.52c 7.82,2.584, 15.383,5.724, 22.648,9.377l 53.223-38.015l 59.454,59.454l-37.95,53.133
		c 3.689,7.298, 6.859,14.902, 9.468,22.764L 448,117.959z M 224,104c-30.928,0-56,25.071-56,56c0,30.928, 25.072,56, 56,56
		c 30.929,0, 56-25.072, 56-56C 280,129.071, 254.929,104, 224,104z"  />
<glyph unicode="&#xe012;" d="M 448,132l-56,112l-84,0 L 308,300 c0,15.4-12.6,28-28,28L 28,328 C 12.6,328,0,315.4,0,300l0-224 l 28-28l 35.51,0 C 58.742,39.761, 56,30.203, 56,20
	c0-30.928, 25.072-56, 56-56s 56,25.072, 56,56c0,10.203-2.742,19.761-7.51,28l 155.021,0 c-4.768-8.239-7.511-17.797-7.511-28
	c0-30.928, 25.072-56, 56-56s 56,25.072, 56,56c0,10.203-2.743,19.761-7.511,28L 448,48 L 448,132 z M 308,132l0,70 l 58.042,0 l 35-70L 308,132 z"  />
<glyph unicode="&#xe013;" d="M 210,356C 94.020,356,0,261.98,0,146c0-115.98, 94.020-210, 210-210c 115.98,0, 210,94.020, 210,210
	C 420,261.98, 325.98,356, 210,356z M 328.821,76c 3.754,17.699, 6.123,36.484, 6.894,56l 55.758,0 c-1.46-19.336-5.961-38.112-13.422-56
	L 328.821,76 z M 91.179,216c-3.754-17.699-6.123-36.484-6.894-56L 28.529,160 c 1.46,19.335, 5.96,38.112, 13.422,56L 91.179,216 z M 300.141,216
	c 4.206-17.921, 6.737-36.686, 7.56-56L 224,160 l0,56 L 300.141,216 z M 224,244L 224,325.96 c 6.383-1.858, 12.707-4.974, 18.912-9.349
	c 11.63-8.199, 22.755-20.828, 32.174-36.525c 6.511-10.851, 12.141-22.932, 16.842-36.087L 224,243.999 z M 144.914,280.087
	c 9.418,15.697, 20.543,28.327, 32.174,36.525c 6.205,4.375, 12.529,7.492, 18.912,9.349L 196,244 l-67.928,0 
	C 132.773,257.154, 138.404,269.235, 144.914,280.087z M 196,216l0-56 l-83.7,0 c 0.823,19.314, 3.354,38.079, 7.559,56L 196,216 z M 41.951,76
	c-7.462,17.888-11.962,36.664-13.422,56l 55.757,0 c 0.771-19.516, 3.14-38.301, 6.894-56L 41.951,76 z M 112.3,132L 196,132 l0-56 l-76.141,0 
	C 115.654,93.92, 113.123,112.686, 112.3,132z M 196,48l0-81.961 c-6.382,1.858-12.707,4.975-18.912,9.349
	c-11.63,8.199-22.756,20.829-32.174,36.525c-6.511,10.852-12.141,22.933-16.843,36.087L 196,48 z M 275.086,11.913
	c-9.418-15.696-20.544-28.326-32.174-36.525c-6.205-4.374-12.529-7.492-18.912-9.349L 224,48 l 67.929,0 
	C 287.227,34.846, 281.597,22.765, 275.086,11.913z M 224,76l0,56 l 83.7,0 c-0.823-19.314-3.354-38.080-7.56-56L 224,76 z M 335.715,160
	c-0.771,19.516-3.14,38.301-6.894,56l 49.229,0 c 7.462-17.888, 11.963-36.665, 13.422-56L 335.715,160 z M 363.413,244l-41.956,0 
	c-8.154,25.708-19.415,48.254-32.951,66.25c 18.61-8.899, 35.463-20.832, 50.187-35.556C 348.091,265.297, 356.352,255.033, 363.413,244
	z M 81.307,274.693c 14.725,14.725, 31.579,26.658, 50.187,35.556c-13.537-17.996-24.796-40.541-32.951-66.25L 56.588,244 
	C 63.648,255.033, 71.91,265.297, 81.307,274.693z M 56.588,48l 41.955,0 c 8.155-25.708, 19.415-48.254, 32.952-66.251
	c-18.61,8.899-35.463,20.832-50.187,35.557C 71.91,26.703, 63.648,36.967, 56.588,48z M 338.693,17.307
	c-14.724-14.725-31.579-26.659-50.187-35.557c 13.537,17.996, 24.797,40.542, 32.951,66.251l 41.956,0 
	C 356.352,36.967, 348.091,26.703, 338.693,17.307z"  />
<glyph unicode="&#xe014;" d="M 382.392,318.392 C 424.7,276.084 448,219.832 448,159.999 C 448,100.167 424.7,43.916 382.392,1.608 C 340.084-40.7 283.832-64 224-64 C 164.168-64 107.916-40.7 65.608,1.608 C 23.3,43.916 0,100.167 0,159.999 C 0,219.832 23.299,276.084 65.608,318.392 C 107.916,360.7 164.168,384 224,384 C 283.832,384 340.084,360.7 382.392,318.392 Z M 362.593,21.406 C 390.181,48.995 408.524,83.36 416.087,120.746 C 410.192,112.067 404.554,108.848 401.062,128.273 C 397.465,159.944 368.377,139.713 350.086,150.962 C 330.834,137.987 287.564,176.189 294.918,133.102 C 306.264,113.667 356.171,159.111 331.295,117.99 C 315.425,89.283 273.264,25.707 278.749-7.248 C 279.441-55.261 229.69-17.26 212.549-1.333 C 201.018,30.569 208.619,86.33 178.469,101.954 C 145.743,103.375 117.654,106.349 104.971,142.935 C 97.338,169.11 113.093,208.076 141.143,214.092 C 182.202,239.889 196.869,183.881 235.376,182.839 C 247.332,195.349 279.92,199.327 282.622,213.355 C 257.357,217.813 314.677,234.599 280.204,244.147 C 261.186,241.91 248.932,224.427 259.043,209.603 C 222.189,201.010 221.008,262.936 185.582,243.403 C 184.682,212.52 127.735,233.391 165.879,239.653 C 178.985,245.379 144.503,261.972 163.132,258.957 C 172.282,259.454 203.089,270.25 194.752,277.508 C 211.907,288.157 226.322,252.006 243.113,278.332 C 255.235,298.573 238.029,302.31 222.834,292.050 C 214.268,301.642 237.959,322.358 258.855,331.31 C 265.819,334.294 272.471,335.92 277.556,335.459 C 288.082,323.3 307.547,321.194 308.565,336.921 C 282.498,349.405 253.757,356 224,356 C 181.29,356 140.669,342.427 107.053,317.329 C 116.087,313.191 121.216,308.038 112.512,301.45 C 105.75,281.301 78.313,254.254 54.226,258.083 C 41.72,236.516 33.484,212.756 29.963,187.852 C 50.137,181.178 54.788,167.968 50.453,163.549 C 40.174,154.586 33.856,141.88 30.601,127.971 C 37.168,87.792 56.052,50.762 85.407,21.406 C 122.427-15.613 171.646-36 224-36 C 276.353-36 325.574-15.613 362.593,21.406 Z"  />
<glyph unicode="&#xe015;" d="M 448,210.291l-154.779,22.491L 224,373.036l-69.22-140.255L0,210.291l 112-109.173L 85.561-53.036L 224,19.745l 138.439-72.782
	l-26.44,154.154L 448,210.291z M 224,54.345l-97.765-51.398l 18.671,108.863l-79.094,77.097l 109.305,15.883L 224,303.839l 48.885-99.048
	l 109.303-15.883l-79.095-77.097l 18.672-108.863L 224,54.345z"  />
<glyph unicode="&#xe016;" d="M 448,210.291l-154.779,22.491L 224,373.036l-69.22-140.255L0,210.291l 112-109.173L 85.561-53.036L 224,19.745l 138.439-72.782
	l-26.44,154.154L 448,210.291z M 224,54.345l-0.412-0.217L 224,303.839l 48.885-99.048l 109.303-15.883l-79.095-77.097l 18.672-108.863
	L 224,54.345z"  />
<glyph unicode="&#xe017;" d="M 448,210.291L 293.221,232.782L 224,373.036l-69.22-140.255L0,210.291l 112-109.173L 85.561-53.036L 224,19.745l 138.439-72.782
	l-26.44,154.154L 448,210.291z"  />
<glyph unicode="&#xe018;" d="M 403.634,117.734l-39.76,39.774L 363.874-50 c0-7.742-6.244-14-13.986-14l-41.958,0 l0,0l-13.986,0 
	c-7.742,0-13.986,6.258-13.986,14l0,27.986 l0,13.986 l0,41.986 l0,83.958 c0,7.742-6.258,14-14,14l-83.93,0 c-7.728,0-13.986-6.258-13.986-14l0-83.958 l0-55.972 l0-14 
	L 168.042-50 c0-7.742-6.272-14-13.986-14l-14,0 l0,0L 98.112-64 c-7.728,0-14,6.258-14,14L 84.112,157.508 l-39.76-39.774L0,162.114L 221.788,384L 224,381.788L 226.212,384
	l 109.69-109.746L 335.902,355.818 l 55.958,0 l0-137.55 L 448,162.114L 403.634,117.734z"  />
<glyph unicode="&#xe019;" d="M 168.672,146.546c-2.492-3.598-5.53-12.614-9.128-14.826c-3.598-2.198-7.658-3.738-12.166-4.592
	c-4.522-0.868-9.198-1.246-14.028-1.106l0-21.378 l 34.538,0 L 167.888,20 l 27.874,0 l0,139.944 l-22.176,0 C 172.802,154.61, 171.164,150.144, 168.672,146.546z M 322,272l 28,0 
	c 7.742,0, 14,6.272, 14,14L 364,370 c0,7.728-6.258,14-14,14l-28,0 c-7.742,0-14-6.272-14-14l0-84 C 308,278.272, 314.258,272, 322,272z M 98,272l 28,0 c 7.728,0, 14,6.272, 14,14L 140,370 
	c0,7.728-6.272,14-14,14L 98,384 C 90.272,384, 84,377.728, 84,370l0-84 C 84,278.272, 90.272,272, 98,272z M 420,328l-28,0 l0-70 c0-7.728-6.258-14-14-14l-84,0 c-7.742,0-14,6.272-14,14L 280,328 l-112,0 l0-70 
	c0-7.728-6.272-14-14-14L 70,244 c-7.728,0-14,6.272-14,14L 56,328 L 28,328 C 12.544,328,0,315.456,0,300l0-336 c0-15.456, 12.544-28, 28-28l 392,0 c 15.456,0, 28,12.544, 28,28L 448,300 
	C 448,315.456, 435.456,328, 420,328z M 420-22c0-7.742-6.258-14-14-14L 42-36 c-7.728,0-14,6.258-14,14L 28,202 c0,7.728, 6.272,14, 14,14l 364,0 c 7.742,0, 14-6.272, 14-14L 420-22 z
	 M 223.79,132.252l 69.552,0 c-13.104-16.128-23.646-32.55-31.71-51.87c-8.050-19.334-8.932-39.452-10.486-60.368l 29.834,0 
	c 0.126,9.324-2.73,19.39-0.714,30.184c 2.044,10.794, 4.928,21.448, 8.638,31.99c 3.738,10.528, 8.372,20.454, 13.944,29.778
	c 5.544,9.338, 11.942,17.206, 19.138,23.604l0,24.388 l-98.21,0 L 223.776,132.252 z"  />
<glyph unicode="&#xe01a;" d="M 406,243.93L 42,243.93 c-7.742,0-14-6.258-14-14l0-126 c0-7.742, 6.258-14, 14-14l 14,0 l0-140 
	c0-7.742, 6.258-14, 14-14l 308,0 c 7.742,0, 14,6.258, 14,14l0,140 l 14,0 c 7.742,0, 14,6.258, 14,14l0,126 C 420,237.672, 413.742,243.93, 406,243.93z M 196-22.070
	c0-7.742-6.258-14-14-14L 98-36.070 c-7.742,0-14,6.258-14,14l0,112 c0,7.742, 6.258,14, 14,14l 84,0 c 7.742,0, 14-6.258, 14-14L 196-22.070 z M 196,145.93c0-7.742-6.258-14-14-14
	L 70,131.93 c-7.742,0-14,6.258-14,14l0,56 c0,7.742, 6.258,14, 14,14l 112,0 c 7.742,0, 14-6.258, 14-14L 196,145.93 z M 364-22.070c0-7.742-6.258-14-14-14l-84,0 
	c-7.742,0-14,6.258-14,14l0,112 c0,7.742, 6.258,14, 14,14l 84,0 c 7.742,0, 14-6.258, 14-14L 364-22.070 z M 392,145.93c0-7.742-6.258-14-14-14l-112,0 
	c-7.742,0-14,6.258-14,14l0,56 c0,7.742, 6.258,14, 14,14l 112,0 c 7.742,0, 14-6.258, 14-14L 392,145.93 z M 161.826,243.944l 128.8,0 
	c 22.078,15.834, 42.952,36.442, 45.43,58.898c 1.204,10.962-1.148,27.020-19.25,41.314c-10.038,7.938-20.23,11.956-30.254,11.956
	c-31.948,0-50.022-39.172-59.794-74.172c-11.676,44.618-34.216,101.99-72.926,101.99c-11.298,0-22.54-4.886-33.474-14.532
	c-21.56-19.068-23.674-38.892-21.658-52.164C 103.222,287.568, 133.070,262.074, 161.826,243.944z M 286.552,322.512c 3.094,0, 7.084-1.848, 11.522-5.376
	c 7.224-5.684, 6.818-9.212, 6.706-10.374c-1.344-12.25-24.318-31.5-51.114-47.39C 261.548,293.266, 274.428,322.512, 286.552,322.512z M 140.476,343.54
	c 3.514,3.108, 8.694,6.804, 13.356,6.804c 17.332,0, 35.154-45.5, 45.542-89.74c-32.732,17.444-66.57,42.182-69.594,62.034
	C 129.374,325.382, 128.254,332.732, 140.476,343.54z"  />
<glyph unicode="&#xe01b;" d="M 336,202.028l0,28 c0,7.742-6.258,14-14,14L 14,244.028 c-7.742,0-14-6.258-14-14l0-196.014 
			c0-2.52, 0.854-4.746, 2.002-6.79C 11.76-24.688, 57.26-64, 112-64l 112,0 c 35.294,0, 66.584,16.478, 87.094,42L 336-22 c 61.852,0, 112,50.162, 112,112.014
			C 448,151.88, 397.852,202.028, 336,202.028z M 336,34.014l0,112.014 c 30.926,0, 56-25.074, 56-56.014C 392,59.088, 366.926,34.014, 336,34.014z M 72.772,264.944
			c-2.086-3.78-1.848-6.902, 2.128-6.902c 3.948,0, 9.366,3.136, 10.724,6.874c 13.902,36.246-59.108,65.716-14.994,110.418
			C 75.152,379.968, 76.986,383.972, 72.982,384C 68.964,384.042, 60.718,380.22, 56.378,375.712C 13.874,332.046, 92.54,301.358, 72.772,264.944z M 125.65,264.776
			C 125.132,261.164, 127.344,258.042, 131.278,258.042c 3.906,0, 7.7,3.122, 8.092,6.706c 3.094,25.956-17.654,49.77-5.194,72.226
			c 0.196,4.060-4.578,8.092-10.766,8.638c-6.174,0.56-11.676-2.506-11.886-6.538C 110.026,309.786, 129.304,291.096, 125.65,264.776z M 187.628,258.042
			c 3.906,0, 7,3.122, 7.742,6.58c 7.098,33.544, 65.072,43.876, 21.364,103.782c-4.676,6.188-12.978,11.872-16.996,11.928
			c-4.032,0.070-4.382-5.46-1.708-11.578c 43.498-41.048, 1.736-70.504-16.758-104.132C 180.656,261.164, 183.736,258.042, 187.628,258.042z
			 M 244.006,258.042c 3.92,0, 6.552,3.15, 7.686,6.832c 10.64,35.602, 130.746,58.618, 29.75,107.618c-10.528,4.984-24.192,9.156-27.174,8.988
			c-3.038-0.21, 4.116-5.376, 13.104-11.018c 82.558-54.11, 5.628-37.786-29.666-105.7C 236.558,261.192, 240.1,258.042, 244.006,258.042z"  />
<glyph unicode="&#xf0f0;" d="M 96,48q0-6.5 -4.75-11.25t-11.25-4.75t-11.25,4.75t-4.75,11.25t 4.75,11.25t 11.25,4.75t 11.25-4.75t 4.75-11.25zM 352,32.75q0-30.25 -18.25-47.5t-48.5-17.25l-218.5,0 q-30.25,0 -48.5,17.25t-18.25,47.5q0,17 1.375,32.75t 6,34.5t 11.875,33.125t 20.25,25.75t 30,15.125q-5.5-13 -5.5-30l0-50.75 q-14.5-5 -23.25-17.5t-8.75-27.75q0-20 14-34t 34-14 t 34,14t 14,34q0,15.25 -8.875,27.75t-23.125,17.5l0,50.75 q0,15.5 6.25,23.25q 33-26 73.75-26t 73.75,26q 6.25-7.75 6.25-23.25l0-16 q-26.5,0 -45.25-18.75t-18.75-45.25l0-22.25 q-8-7.25 -8-17.75q0-10 7-17t 17-7t 17,7t 7,17q0,10.5 -8,17.75l0,22.25 q0,13 9.5,22.5t 22.5,9.5t 22.5-9.5t 9.5-22.5l0-22.25 q-8-7.25 -8-17.75q0-10 7-17 t 17-7t 17,7t 7,17q0,10.5 -8,17.75l0,22.25 q0,17 -8.625,31.875t-23.375,23.375q0,2.5 0.125,10.625t0,12t-0.625,10.375t-1.75,11.75t-3.25,10q 17-3.75 30-15.125t 20.25-25.75t 11.875-33.125t 6-34.5t 1.375-32.75zM 272,256q0-39.75 -28.125-67.875t-67.875-28.125t-67.875,28.125t-28.125,67.875t 28.125,67.875t 67.875,28.125 t 67.875-28.125t 28.125-67.875z" horiz-adv-x="352"  />
<glyph unicode="&#xf0f1;" d="M 320,208q0,6.5 -4.75,11.25t-11.25,4.75t-11.25-4.75t-4.75-11.25t 4.75-11.25t 11.25-4.75t 11.25,4.75t 4.75,11.25zM 352,208q0-15.5 -8.875-27.75t-23.125-17.5l0-98.75 q0-39.75 -32.875-67.875t-79.125-28.125t-79.125,28.125t-32.875,67.875l0,33 q-41,5 -68.5,32t-27.5,63l0,128 q0,6.5 4.75,11.25t 11.25,4.75q 1.5,0 4-0.5q 4.25,7.5 11.75,12 t 16.25,4.5q 13.25,0 22.625-9.375t 9.375-22.625t-9.375-22.625t-22.625-9.375q-8.25,0 -16,4.5l0-100.5 q0-26.5 23.5-45.25t 56.5-18.75t 56.5,18.75t 23.5,45.25l0,100.5 q-7.75-4.5 -16-4.5q-13.25,0 -22.625,9.375t-9.375,22.625t 9.375,22.625t 22.625,9.375q 8.75,0 16.25-4.5t 11.75-12q 2.5,0.5 4,0.5q 6.5,0 11.25-4.75t 4.75-11.25l0-128 q0-36 -27.5-63 t-68.5-32l0-33 q0-26.5 23.5-45.25t 56.5-18.75t 56.5,18.75t 23.5,45.25l0,98.75 q-14.25,5.25 -23.125,17.5t-8.875,27.75q0,20 14,34t 34,14t 34-14t 14-34z" horiz-adv-x="352"  />
<glyph unicode="&#xf0f4;" d="M 416,224q0,20 -14,34t-34,14l-16,0 l0-96 l 16,0 q 20,0 34,14t 14,34zM0,32l 448,0 q0-26.5 -18.75-45.25t-45.25-18.75l-320,0 q-26.5,0 -45.25,18.75t-18.75,45.25zM 464,224q0-39.75 -28.125-67.875t-67.875-28.125l-16,0 l0-8 q0-23 -16.5-39.5t-39.5-16.5l-176,0 q-23,0 -39.5,16.5t-16.5,39.5l0,184 q0,6.5 4.75,11.25 t 11.25,4.75l 288,0 q 39.75,0 67.875-28.125t 28.125-67.875z" horiz-adv-x="480"  />
<glyph unicode="&#xf0f5;" d="M 160,368l0-160 q0-15.25 -8.875-27.75t-23.125-17.5l0-194.75 q0-13 -9.5-22.5t-22.5-9.5l-32,0 q-13,0 -22.5,9.5t-9.5,22.5l0,194.75 q-14.25,5 -23.125,17.5t-8.875,27.75l0,160 q0,6.5 4.75,11.25t 11.25,4.75t 11.25-4.75t 4.75-11.25l0-104 q0-6.5 4.75-11.25t 11.25-4.75t 11.25,4.75t 4.75,11.25l0,104 q0,6.5 4.75,11.25t 11.25,4.75t 11.25-4.75t 4.75-11.25l0-104 q0-6.5 4.75-11.25 t 11.25-4.75t 11.25,4.75t 4.75,11.25l0,104 q0,6.5 4.75,11.25t 11.25,4.75t 11.25-4.75t 4.75-11.25zM 352,368l0-400 q0-13 -9.5-22.5t-22.5-9.5l-32,0 q-13,0 -22.5,9.5t-9.5,22.5l0,128 l-56,0 q-3.25,0 -5.625,2.375t-2.375,5.625l0,200 q0,33 23.5,56.5t 56.5,23.5l 64,0 q 6.5,0 11.25-4.75t 4.75-11.25z" horiz-adv-x="352"  />
<glyph unicode="&#xf0f9;" d="M 160,32q0,13.25 -9.375,22.625t-22.625,9.375t-22.625-9.375t-9.375-22.625t 9.375-22.625t 22.625-9.375t 22.625,9.375t 9.375,22.625zM 64,160l 96,0 l0,64 l-39.5,0 q-3.5-0.5 -5.5-2.25l-48.75-48.75q-1.75-3 -2.25-5.5l0-7.5 zM 384,32q0,13.25 -9.375,22.625t-22.625,9.375t-22.625-9.375t-9.375-22.625t 9.375-22.625t 22.625-9.375 t 22.625,9.375t 9.375,22.625zM 416,200l0,48 q0,3.5 -2.25,5.75t-5.75,2.25l-56,0 l0,56 q0,3.5 -2.25,5.75t-5.75,2.25l-48,0 q-3.5,0 -5.75-2.25t-2.25-5.75l0-56 l-56,0 q-3.5,0 -5.75-2.25t-2.25-5.75l0-48 q0-3.5 2.25-5.75t 5.75-2.25l 56,0 l0-56 q0-3.5 2.25-5.75t 5.75-2.25l 48,0 q 3.5,0 5.75,2.25t 2.25,5.75l0,56 l 56,0 q 3.5,0 5.75,2.25t 2.25,5.75zM 480,336l0-288  q0-6.5 -4.75-11.25t-11.25-4.75l-48,0 q0-26.5 -18.75-45.25t-45.25-18.75t-45.25,18.75t-18.75,45.25l-96,0 q0-26.5 -18.75-45.25t-45.25-18.75t-45.25,18.75t-18.75,45.25l-32,0 q-6.5,0 -11.25,4.75t-4.75,11.25t 4.75,11.25t 11.25,4.75l0,104 q0,6.5 3.25,14.5t 8,12.75l 49.5,49.5q 4.75,4.75 12.75,8t 14.5,3.25l 40,0 l0,80 q0,6.5 4.75,11.25t 11.25,4.75l 288,0 q 6.5,0 11.25-4.75t 4.75-11.25z" horiz-adv-x="480"  />
<glyph unicode="&#xf08d;" d="M 120,168l0,112 q0,3.5 -2.25,5.75t-5.75,2.25t-5.75-2.25t-2.25-5.75l0-112 q0-3.5 2.25-5.75t 5.75-2.25t 5.75,2.25t 2.25,5.75zM 288,80q0-6.5 -4.75-11.25t-11.25-4.75l-107.25,0 l-12.75-120.75q-0.5-3 -2.625-5.125t-5.125-2.125l-0.25,0 q-6.75,0 -8,6.75l-19,121.25l-101,0 q-6.5,0 -11.25,4.75t-4.75,11.25q0,30.75 19.625,55.375t 44.375,24.625l0,128 q-13,0 -22.5,9.5 t-9.5,22.5t 9.5,22.5t 22.5,9.5l 160,0 q 13,0 22.5-9.5t 9.5-22.5t-9.5-22.5t-22.5-9.5l0-128 q 24.75,0 44.375-24.625t 19.625-55.375z" horiz-adv-x="288"  />
<glyph unicode="&#xf06c;" d="M 320,208q0,6.5 -4.75,11.25t-11.25,4.75q-43,0 -79.5-12.375t-64.875-33.5t-58.875-54.875q-4.75-5.25 -4.75-11.25q0-6.5 4.75-11.25t 11.25-4.75q 6,0 11.25,4.75q 6.75,6 18.5,17.75t 16.75,16.5q 34.25,31 67.125,44t 78.375,13q 6.5,0 11.25,4.75t 4.75,11.25zM 448,257.5q0-23.75 -5-48.25q-11.5-56 -46.125-95.75t-89.375-67 q-53.5-27 -109.5-27q-37,0 -71.5,11.75q-3.75,1.25 -22,10.5t-24,9.25q-4,0 -9.875-8t-11.25-17.5t-13.125-17.5t-15-8q-7.5,0 -12.75,2.75t-7.75,6t-6.75,10.5q-0.5,1 -1.5,2.75t-1.375,2.5t-0.75,2.375t-0.375,3.375q0,8.75 7.75,18.375t 17,16.375t 17,14t 7.75,12q0,1 -3.5,9.5t-4,11q-2.25,12.75 -2.25,26q0,28.75 10.875,55t 29.75,46.125 t 42.625,34.75t 51,23.875q 13.75,4.5 36.25,6.375t 44.875,2.25t 44.625,1.5t 40.875,6t 28.375,14.125l 7.375,7.375t 7.375,7t 6.75,5t 9.125,4t 10.875,1.125q 9.75,0 17.625-11.5t 11.875-28t 6-31t 2-24z"  />
<glyph unicode="&#xf072;" d="M 349.25,331q0-21.75 -37.25-59l-60-60l 35.75-186.5l 0.25-1.5q0-3.5 -2.25-5.75l-16-16q-2.25-2.25 -5.75-2.25q-5.25,0 -7.25,4.5l-68.5,143.75l-61.25-61.25q 17-59.5 17-63t-2.25-5.75l-16-16q-2.25-2.25 -5.75-2.25q-4.5,0 -7,4l-38.75,70l-70,38.75q-4.25,2.25 -4.25,7q0,3.5 2.25,5.75l 16,16.25q 2.25,2.25 5.75,2.25t 63-17l 61.25,61.25 l-143.75,68.5q-4.5,2 -4.5,7.25q0,3.5 2.25,5.75l 16,16q 2.25,2.25 5.75,2.25q 1,0 1.5-0.25l 186.5-35.75l 60,60q 37.25,37.25 59,37.25q 8,0 13.125-5.125t 5.125-13.125z" horiz-adv-x="352"  />
<glyph unicode="&#xe01c;" d="M 336,104.014l-79.984,79.985L 448,328.002L 391.996,384l-239.977-96.006L 76.462,363.553C 54.683,385.331, 24.267,390.549, 8.867,375.15
	C-6.532,359.751-1.313,329.333, 20.465,307.556l 75.55-75.549L0-7.997L 55.996-64L 200.016,128.005l 79.986-79.987l0-111.991 L 336-63.974 
	l 27.996,83.995l 83.995,27.998l0,55.997 L 336,104.016 L 336,104.014 z"  />
<glyph unicode="&#xe01d;" d="M 378,384c-38.663,0-70-31.339-70-70l0-210 l 56,0 l0-168 l 84,0 L 448,314 C 448,352.661, 416.66,384, 378,384zM 182,384c-7.733,0-14-6.268-14-14l0-98 c0-3.866-6.268-7-14-7c-7.733,0-14,3.134-14,7L 140,370 c0,7.732-6.268,14-14,14
		c-7.732,0-14-6.268-14-14l0-98 c0-3.866-6.268-7-14-7c-7.732,0-14,3.134-14,7L 84,370 c0,7.732-6.268,14-14,14c-7.732,0-14-6.268-14-14l0-98 
		c0-3.866-6.268-7-14-7s-14,3.134-14,7L 28,370 c0,7.732-6.268,14-14,14S0,377.732,0,370l0-98 l0-28 c0-12.389, 10.963-19.298, 23.189-28
		C 38.594,205.034, 56,191.222, 56,160l0-224 l 84,0 L 140,160 c0,31.222, 17.406,45.035, 32.809,56C 185.035,224.702, 196,231.611, 196,244l0,28 L 196,370 
		C 196,377.732, 189.732,384, 182,384z"  />
<glyph unicode="&#xf429;" d="M 413.875,179.25q-21.875-78.75 -21.875-131.25l0-84 l-28,0 l0,112 q0,55.563 -18.375,76.563q-10.063-7.875 -21.438-26.031t-20.781-38.5t-21.656-42.875t-24.063-40.25t-28-29.313t-33.688-11.594q-44.625,0 -88.156,4.375t-75.688,14.438t-32.156,23.188q0,11.375 28.438,34.563t 62.125,42.438t 49.438,21q 7.875-7.875 13.344-12.469t 17.719-10.063t 24.938-5.469q 10.063,0 38.063,36.094t 56.656,82.688t 50.969,94.063
t 22.313,67.156q 35,0 59.5-28.656t 24.5-69.344q0-23.625 -9.188-44.188t-24.938-34.563z"  />
<glyph unicode="&#xf3a4;" d="M 420-0.125l0-35.875 q0-11.813 -8.313-19.906t-19.906-8.094t-19.688,8.094t-8.094,19.906l0,28 l-280,0 l0-28 q0-11.813 -8.094-19.906t-19.688-8.094t-19.906,8.094t-8.313,19.906l0,35.875 q-12.688,7.438 -20.344,20.125t-7.656,28l0,84 q0,13.563 12.031,31.281t 29.531,32.156l 14.438,48.563q0,23.188 16.406,39.594t 39.594,16.406l 31.938,0 l 160.125,0 l 31.938,0 q 23.188,0 39.594-16.406t 16.406-39.594
l 14.438-48.563q 17.5-14.438 29.531-32.156t 12.031-31.281l0-84 q0-15.313 -7.656-28t-20.344-20.125zM 56,75.781q0-11.594 8.313-19.688t 19.906-8.094t 19.688,8.094t 8.094,19.688t-8.094,19.906t-19.688,8.313t-19.906-8.313t-8.313-19.906zM 350,216q0,11.375 -8.094,19.688t-19.906,8.313l-196,0 q-11.813,0 -19.906-8.313t-8.094-19.688l-14-28q0-11.813 8.313-19.906t 19.688-8.094
l 224,0 q 11.375,0 19.688,8.094t 8.313,19.906zM 363.781,104q-11.594,0 -19.688-8.313t-8.094-19.906t 8.094-19.688t 19.688-8.094t 19.906,8.094t 8.313,19.688t-8.313,19.906t-19.906,8.313zM 151.813,328l 12.688,46.375q 1.75,3.938 6.125,6.563t 9.188,2.625l 89.688,0 q 4.375,0 8.75-2.625t 6.125-6.563l 12.25-46.375l-144.813,0 z"  />
<glyph unicode="&#xf3d1;" d="M 266,188q0-15.313 3.938-36.313q 0.438-2.188 7.219-15.531t 11.813-32.156t 5.031-42l-28,0 q0,0.438 -0.656,7.875t-1.75,15.531t-2.625,17.5t-3.719,17.5t-5.25,11.594q-10.063,10.5 -12.031,20.781t-1.969,35.219q0,35 16.406,59.5t 39.594,24.5q 6.563,0 14-2.625q-18.375-7.438 -30.188-29.75t-11.813-51.625zM 182,294.75q0-16.625 3.938-38.938q 24.063-27.125 24.063-73.5q0-76.563 -14-106.313
q-14,63.438 -14,106.313q0,33.688 -3.938,38.938q-24.063,27.125 -24.063,73.5q0,36.75 16.406,63t 39.594,26.25q 6.563,0 14-3.063q-18.375-7.438 -30.188-31.5t-11.813-54.688zM 369.688-10.188q-9.188-21.875 -23.844-37.844t-30.844-15.969l-182,0 q-16.188,0 -31.063,16.188t-24.063,38.5q-7.438,4.375 -22.313,12.688t-22.313,12.688t-16.625,10.719t-13.125,11.375t-3.5,9.844l 448,0 q0-6.563 -3.938-12.688t-12.906-12.25t-16.844-10.281
t-22.094-11.375t-22.531-11.594z"  />
<glyph unicode="&#xf245;" d="M 434-64l-420,0 q-5.688,0 -9.844,4.156t-4.156,9.844t 4.156,9.844t 9.844,4.156l 14,0 q 11.813,0 19.906,8.313t 8.094,19.688l0,364 q0,11.375 8.313,19.688t 19.688,8.313l 280,0 q 11.813,0 19.906-8.313t 8.094-19.688l0-364 q0-11.813 8.313-19.906t 19.688-8.094l 14,0 q 5.688,0 9.844-4.156t 4.156-9.844t-4.156-9.844t-9.844-4.156zM 168,314q0,5.688 -4.156,9.844t-9.844,4.156l-28,0 
q-5.688,0 -9.844-4.156t-4.156-9.844l0-28 q0-5.688 4.156-9.844t 9.844-4.156l 28,0 q 5.688,0 9.844,4.156t 4.156,9.844l0,28 zM 168,230q0,5.688 -4.156,9.844t-9.844,4.156l-28,0 q-5.688,0 -9.844-4.156t-4.156-9.844l0-28 q0-5.688 4.156-9.844t 9.844-4.156l 28,0 q 5.688,0 9.844,4.156t 4.156,9.844l0,28 zM 168,146q0,5.688 -4.156,9.844t-9.844,4.156l-28,0 
q-5.688,0 -9.844-4.156t-4.156-9.844l0-28 q0-5.688 4.156-9.844t 9.844-4.156l 28,0 q 5.688,0 9.844,4.156t 4.156,9.844l0,28 zM 252,314q0,5.688 -4.156,9.844t-9.844,4.156l-28,0 q-5.688,0 -9.844-4.156t-4.156-9.844l0-28 q0-5.688 4.156-9.844t 9.844-4.156l 28,0 q 5.688,0 9.844,4.156t 4.156,9.844l0,28 zM 252,230q0,5.688 -4.156,9.844t-9.844,4.156l-28,0 
q-5.688,0 -9.844-4.156t-4.156-9.844l0-28 q0-5.688 4.156-9.844t 9.844-4.156l 28,0 q 5.688,0 9.844,4.156t 4.156,9.844l0,28 zM 252,146q0,5.688 -4.156,9.844t-9.844,4.156l-28,0 q-5.688,0 -9.844-4.156t-4.156-9.844l0-28 q0-5.688 4.156-9.844t 9.844-4.156l 28,0 q 5.688,0 9.844,4.156t 4.156,9.844l0,28 zM 266,48l-84,0 q-5.688,0 -9.844-4.156t-4.156-9.844
l0-56 q0-5.688 4.156-9.844t 9.844-4.156l 84,0 q 5.688,0 9.844,4.156t 4.156,9.844l0,56 q0,5.688 -4.156,9.844t-9.844,4.156zM 336,314q0,5.688 -4.156,9.844t-9.844,4.156l-28,0 q-5.688,0 -9.844-4.156t-4.156-9.844l0-28 q0-5.688 4.156-9.844t 9.844-4.156l 28,0 q 5.688,0 9.844,4.156t 4.156,9.844l0,28 zM 336,230q0,5.688 -4.156,9.844t-9.844,4.156l-28,0 
q-5.688,0 -9.844-4.156t-4.156-9.844l0-28 q0-5.688 4.156-9.844t 9.844-4.156l 28,0 q 5.688,0 9.844,4.156t 4.156,9.844l0,28 zM 336,146q0,5.688 -4.156,9.844t-9.844,4.156l-28,0 q-5.688,0 -9.844-4.156t-4.156-9.844l0-28 q0-5.688 4.156-9.844t 9.844-4.156l 28,0 q 5.688,0 9.844,4.156t 4.156,9.844l0,28 z"  />
<glyph unicode="&#xf241;" d="M 420-8l0-28 q0-11.375 -8.313-19.688t-19.906-8.313t-19.688,8.313t-8.094,19.688l0,28 l-280,0 l0-28 q0-11.375 -8.313-19.688t-19.906-8.313t-19.688,8.313t-8.094,19.688l0,28 q-11.375,0 -19.688,8.313t-8.313,19.688l0,336 q0,11.813 8.313,19.906t 19.688,8.094l 392,0 q 11.375,0 19.688-8.094t 8.313-19.906l0-336 q0-11.375 -8.094-19.688t-19.906-8.313zM 84,48l 28,0 q 11.813,0 19.906,8.313t 8.094,19.906
t-8.094,19.688t-19.906,8.094l-28,0 q-11.375,0 -19.688-8.094t-8.313-19.688t 8.313-19.906t 19.688-8.313zM 392,300q0,11.813 -8.313,19.906t-19.688,8.094l-280,0 q-11.813,0 -19.906-8.094t-8.094-19.906l0-112 q0-11.375 8.094-19.688t 19.906-8.313l 280,0 q 11.375,0 19.688,8.313t 8.313,19.688l0,112 zM 364,104l-28,0 q-11.375,0 -19.688-8.094t-8.313-19.688t 8.313-19.906t 19.688-8.313l 28,0 q 11.813,0 19.906,8.313
t 8.094,19.906t-8.094,19.688t-19.906,8.094z"  />
<glyph unicode="&#xf239;" d="M 420,27.875l0-35.875 q0-11.813 -8.094-19.906t-19.688-8.094t-19.906,8.094t-8.313,19.906l0,28 l-280,0 l0-28 q0-11.813 -8.094-19.906t-19.688-8.094t-19.906,8.094t-8.313,19.906l0,35.875 q-12.688,7.438 -20.344,20.125t-7.656,28l0,84 q0,12.25 10.063,28.219t 25.375,30.406l 20.563,81.375q0,23.188 16.406,39.594t 39.594,16.406l 224,0 q 23.188,0 39.594-16.406t 16.406-39.594l 20.563-81.375
q 15.313-14.438 25.375-30.406t 10.063-28.219l0-84 q0-15.313 -7.656-28t-20.344-20.125zM 56,103.781q0-11.594 8.094-19.688t 19.688-8.094t 19.906,8.094t 8.313,19.688t-8.313,19.906t-19.906,8.313t-19.688-8.313t-8.094-19.906zM 350,272q0,11.375 -8.094,19.688t-19.906,8.313l-196,0 q-11.375,0 -19.688-8.313t-8.313-19.688l-14-56q0-11.813 8.094-19.906t 19.906-8.094l 224,0 
q 11.813,0 19.906,8.094t 8.094,19.906zM 364.219,132q-11.594,0 -19.906-8.313t-8.313-19.906t 8.313-19.688t 19.906-8.094t 19.688,8.094t 8.094,19.688t-8.094,19.906t-19.688,8.313z"  />
<glyph unicode="&#xf240;" d="M 420,160l-168,0 l0-196 q0-11.375 -8.094-19.688t-19.906-8.313t-19.906,8.313t-8.094,19.688l0,196 l-69.563,0 l-0.438,0 l-14,0 q-6.563,0 -10.063,3.5q-3.938,1.313 -5.25,3.063l-90.125,62.125q-6.563,6.563 -6.563,15.531t 6.563,15.531l 90.125,62.125q 1.75,1.75 6.125,3.063q 3.063,3.063 9.188,3.063l 6.125,0 q 7.875,0.438 16.188,0l 61.688,0 l0,28 q0,11.375 8.094,19.688t 19.906,8.313t 19.906-8.313t 8.094-19.688l0-28 l 168,0 q 11.375,0 19.688-8.313t 8.313-19.688l0-112 
q0-11.813 -8.313-19.906t-19.688-8.094z"  />
<glyph unicode="&#xf259;" d="M 224-64q-45.5,0 -87.063,17.719t-71.531,47.688t-47.688,71.531t-17.719,87.063t 17.719,86.844t 47.688,71.313t 71.531,47.688t 87.063,17.719t 87.063-17.719t 71.531-47.688t 47.688-71.313t 17.719-86.844t-17.719-87.063t-47.688-71.531t-71.531-47.688t-87.063-17.719zM 140,216q0,28.438 23.188,42.219t 60.813,13.781t 60.813-10.063t 23.188-31.938q0-11.813 8.094-19.906
t 19.688-8.094t 19.906,8.094t 8.313,19.906l0,0 l0,0 q0,22.75 -16.844,43.313t-42,33.688t-53.594,17.938q 0.438,1.75 0.438,3.063q0,11.375 -8.313,19.469t-19.906,8.094t-19.688-8.094t-8.094-19.469l0-1.313 l0-0.875 q-21.438-3.5 -40.688-11.375t-35.656-20.781t-26.031-33.031t-9.625-44.625q0-41.125 37.625-62.563t 102.375-21.438l 10.938,0 q 13.563,0 20.125-0.219t 16.844-0.875t 15.313-2.406t 10.719-4.813t 7.875-7.875t 2.188-11.813
q0-28.875 -23.188-42.438t-60.813-13.563q-38.063,0 -61.031,10.063t-22.969,31.938q0,11.375 -8.313,19.688t-19.906,8.313t-19.688-8.313t-8.094-19.688l0,0 l0,0 q0-23.188 16.844-43.531t 42-33.469t 53.156-18.375l0-2.625 q0-11.813 8.094-19.906t 19.688-8.094t 19.906,8.094t 8.313,19.906q0,0.438 -0.219,1.094t-0.219,1.094q 21.875,3.063 41.125,10.938t 35.656,20.781t 26.031,33.031t 9.625,45.063q0,40.688 -37.625,62.344
t-102.375,21.656l-11.375,0 q-13.125-0.438 -19.688-0.219t-16.844,0.875t-15.313,2.406t-10.719,4.813t-7.875,8.094t-2.188,12.031z"  />
<glyph unicode="&#xf263;" d="M 440.125-56.125q-7.875-7.875 -18.813-7.875t-18.813,7.875l-196.438,196.438l-45.938-45.938l0-0.438 q 7.875-7.875 7.875-19.031t-7.875-19.031t-19.031-7.875t-19.031,7.875l-114.188,114.188q-7.875,7.875 -7.875,19.031t 7.875,19.031t 19.031,7.875t 19.031-7.875l 0.438-0.438l 129.938,129.938l-0.438,0.438q-7.875,7.875 -7.875,19.031t 7.875,19.031t 19.031,7.875t 19.031-7.875l 114.188-114.188q 7.875-7.875 7.875-19.031t-7.875-19.031
t-19.031-7.875t-19.031,7.875l-0.438,0.438l-45.938-45.938l 196.438-196.875q 7.875-7.875 7.875-18.813t-7.875-18.813zM 147.438,274.625l-37.625-38.063l 79.188-79.188l 37.625,37.625z"  />
<glyph unicode="&#xf257;" d="M 448,160q0-38.063 -14.875-72.406t-41.563-61.031l 25.813-62.563q 4.813-11.375 -0.219-19.688t-17.281-8.313l-58.188,0 q-12.25,0 -24.063,8.313t-16.625,19.688l-3.5,8.313q-29.75-8.313 -59.5-8.313q-17.063,0 -33.688,2.625l-1.313-2.625q-4.813-11.375 -16.625-19.688t-24.063-8.313l-58.188,0 q-12.25,0 -17.281,8.313t-0.219,19.688l 19.688,48.125q-41.563,36.75 -56.875,91.875l-21.438,0 q-11.375,0 -19.688,16.406t-8.313,39.594t 8.313,39.594
t 19.688,16.406l 21.875,0 q 9.188,32.813 28,59.5q-2.188,8.313 -6.125,20.563t-6.781,21.438t-5.469,20.125t-3.063,18.594t 1.094,14.219t 6.781,10.063t 14.438,3.5q 22.313,0 43.75-11.813t 36.75-31.5q 36.75,15.313 78.75,15.313q 67.813,0 122.938-37.188q 14,9.188 31.063,9.188q 23.188,0 39.594-16.406t 16.406-39.594q0-22.313 -15.313-38.5q 15.313-35.438 15.313-73.5zM 139.781,244q-11.594,0 -19.688-8.094t-8.094-19.688t 8.094-19.906
t 19.688-8.313t 19.906,8.313t 8.313,19.906t-8.313,19.688t-19.906,8.094z"  />
<glyph unicode="&#xf24a;" d="M 434,188l-14,0 l0-70 q0-5.688 -4.156-9.844t-9.844-4.156t-9.844,4.156t-4.156,9.844l0,70 l-336,0 l0-70 q0-5.688 -4.156-9.844t-9.844-4.156t-9.844,4.156t-4.156,9.844l0,70 l-14,0 q-5.688,0 -9.844,4.156t-4.156,9.844l0,28 q0,5.688 4.156,9.844t 9.844,4.156l 420,0 q 5.688,0 9.844-4.156t 4.156-9.844l0-28 q0-5.688 -4.156-9.844t-9.844-4.156z
M 252,370q0,5.688 4.156,9.844t 9.844,4.156l 28,0 q 5.688,0 9.844-4.156t 4.156-9.844l 19.688-98l-75.688,0 l0,98 zM 140,370q0,5.688 4.156,9.844t 9.844,4.156l 28,0 q 5.688,0 9.844-4.156t 4.156-9.844l0-98 l-75.688,0 zM 196,160l0-210 q0-5.688 -4.156-9.844t-9.844-4.156l-112,0 q-5.688,0 -9.844,4.156t-4.156,9.844l 42,210l 98,0 zM 392-50
q0-5.688 -4.156-9.844t-9.844-4.156l-112,0 q-5.688,0 -9.844,4.156t-4.156,9.844l0,210 l 98,0 z"  />
<glyph unicode="&#xf271;" d="M 336-63.563q-19.688-0.438 -98-0.438t-98,0.438q-55.563,1.313 -83.781,7.438t-28.219,20.563q0,8.75 8.75,35.219t 19.25,55.563t 19.25,66.938t 8.75,66.281q0,84 154,84t 154-84q0-28.438 8.75-66.281t 19.25-66.938t 19.25-55.563t 8.75-35.219q0-14.438 -28.219-20.563t-83.781-7.438zM 238,174.437q 29.75,0 49.656-7t 20.344-20.563l0-0.438 q0-5.688 4.156-9.844t 9.844-4.156
t 9.844,4.156t 4.156,9.844q0,51.188 -84,55.563l0,14.438 q0,5.688 -4.156,9.844t-9.844,4.156t-9.844-4.156t-4.156-9.844l0-14.438 q-84-4.375 -84-55.563q0-9.625 2.844-16.625t 9.188-11.594t 13.781-7.438t 19.688-4.156t 23.625-1.75t 28.875-0.438q 30.188,0 50.094-7.219t 19.906-20.781t-19.906-20.781t-50.094-7.219q-29.75,0 -49.656,7t-20.344,20.563l0,0.438 q0,5.688 -4.156,9.844
t-9.844,4.156t-9.844-4.156t-4.156-9.844q0-51.188 84-55.563l0-14.438 q0-5.688 4.156-9.844t 9.844-4.156t 9.844,4.156t 4.156,9.844l0,14.438 q 84,4.375 84,55.563q0,56 -98,56q-6.125,0 -15.313-0.219t-14.875-0.438t-12.688,0t-11.375,1.094t-8.313,2.406t-5.688,4.375t-1.75,6.781q0,13.563 20.125,20.781t 49.875,7.219zM 238,300.437q-26.25,0 -48.125-2.625q-9.188,18.375 -15.531,35.656
t-6.344,22.969q0,7 11.375,14q 10.5-6.125 26.688-10.063t 31.938-3.938t 31.938,3.938t 26.688,10.063q 11.375-7 11.375-14q0-5.688 -6.344-22.969t-15.531-35.656q-21.875,2.625 -48.125,2.625z"  />
<glyph unicode="&#xf27a;" d="M 420-64l-392,0 q-11.813,0 -19.906,8.313t-8.094,19.688l0,392 q0,11.813 8.313,19.906t 19.688,8.094l 56,0 q 11.375,0 19.688-8.094t 8.313-19.906l0-184.625 l 84,67.813q 11.375,7 19.688,4.375t 8.313-13.125l0-59.063 l 84,67.813q 11.375,7 19.688,4.375t 8.313-13.125l0-59.063 l 84,67.813q 11.813,7 19.906,4.375t 8.094-13.125l0-266.438 q0-11.813 -8.313-19.906t-19.688-8.094z"  />
<glyph unicode="&#xf288;" d="M 448,6q0-5.688 -4.156-9.844t-9.844-4.156t-9.844,4.156t-4.156,9.844l0,184.188 l-154.438-77.438q-17.5-8.75 -41.563-8.75t-41.563,8.75l-165.375,82.688q-17.063,8.75 -17.063,20.781t 17.063,20.344l 165.375,82.688q 17.5,8.75 41.563,8.75t 41.563-8.75l 165.375-82.688q 14.875-7.438 16.625-18.375q 0.438-0.438 0.438-1.75l0-0.438 l0-210 l0,0 zM 279.563,84.75l 84.438,42.438l0-61.688 q0-18.813 -40.906-32.156t-99.094-13.344
t-99.094,13.344t-40.906,32.156l0,61.688 l 84.438-42.438q 17.5-8.75 55.563-8.75t 55.563,8.75z"  />
<glyph unicode="&#xf29b;" d="M 392,104q-33.25-1.313 -58.625-26.25t-25.375-57.75l0-28 l-28,0 l0,28 q0,32.813 -26.469,58.406t-57.531,25.594l-84,0 l0-98 q0-5.25 -3.281-8.969t-8.094-4.594q-0.875-0.438 -2.625-0.438l-84,0 q-5.688,0 -9.844,4.156t-4.156,9.844t 4.156,9.844t 9.844,4.156l 70,0 l0,322 q0,5.688 4.156,9.844t 9.844,4.156t 9.844-4.156t 4.156-9.844l0-210 l 56,0 l 56,196
q0,11.375 8.094,19.688t 19.906,8.313l 168,0 q 11.375,0 19.688-8.313t 8.313-19.688l0-196 l0-28 l-56,0 zM 392,284.25q0,6.563 -5.031,11.156t-11.594,4.594l-101.063,0 q-7,0 -11.813-4.594t-4.813-11.156l-33.688-108.5q0-6.563 5.031-11.156t 11.594-4.594l 39.375,0 q0,11.813 8.313,19.906t 19.688,8.094l 28,0 l0,70 q0,5.688 4.156,9.844t 9.844,4.156t 9.844-4.156t 4.156-9.844l0-70 l 28,0 l0,96.25 l0,0 z
M 196,76q 23.188,0 39.594-16.406t 16.406-39.594t-16.406-39.594t-39.594-16.406t-39.594,16.406t-16.406,39.594t 16.406,39.594t 39.594,16.406zM 392,76q 23.188,0 39.594-16.406t 16.406-39.594t-16.406-39.594t-39.594-16.406t-39.594,16.406t-16.406,39.594t 16.406,39.594t 39.594,16.406z"  />
<glyph unicode="&#xf2a6;" d="M 224-64q-45.5,0 -87.063,17.719t-71.531,47.688t-47.688,71.531t-17.719,87.063t 17.719,87.063t 47.688,71.531t 71.531,47.688t 87.063,17.719t 87.063-17.719t 71.531-47.688t 47.688-71.531t 17.719-87.063t-17.719-87.063t-47.688-71.531t-71.531-47.688t-87.063-17.719zM 224,328q-45.5,0 -84.219-22.531t-61.25-61.25t-22.531-84.219t 22.531-84.219
t 61.25-61.25t 84.219-22.531t 84.219,22.531t 61.25,61.25t 22.531,84.219t-22.531,84.219t-61.25,61.25t-84.219,22.531zM 224,20q-38.063,0 -70.219,18.813t-50.969,50.969t-18.813,70.219t 18.813,70.219t 50.969,50.969t 70.219,18.813t 70.219-18.813t 50.969-50.969t 18.813-70.219t-18.813-70.219t-50.969-50.969t-70.219-18.813zM 223.781,244
q-34.781,0 -59.281-24.5t-24.5-59.5t 24.5-59.5t 59.5-24.5t 59.5,24.5t 24.5,59.5t-24.719,59.5t-59.5,24.5zM 224,104q-23.188,0 -39.594,16.406t-16.406,39.594t 16.406,39.594t 39.594,16.406t 39.594-16.406t 16.406-39.594t-16.406-39.594t-39.594-16.406z"  />
<glyph unicode="&#xf2ae;" d="M 364,188l0-28 q 11.375,0 19.688-8.313t 8.313-19.906t-8.313-19.688t-19.688-8.094l-0.875,0 q-1.75-7.438 -6.125-11.813l-90.125-57.75l 90.563-58.188q 7-7 7-16.625t-7-16.625t-16.844-7t-16.406,7l-100.188,63.875l-100.188-63.875q-7-7 -16.625-7t-16.625,7t-7,16.625t 7,16.625l 90.563,58.188l-90.125,57.75q-4.375,4.375 -6.125,11.813l-0.875,0 q-11.813,0 -19.906,8.094t-8.094,19.688
t 8.094,19.906t 19.906,8.313l0,28 q-11.813,0 -19.906,8.094t-8.094,19.906l0,112 q0,11.375 8.094,19.688t 19.906,8.313q0,11.375 8.313,19.688t 19.906,8.313t 19.688-8.313t 8.094-19.688l 168,0 q0,11.375 8.313,19.688t 19.906,8.313t 19.688-8.313t 8.094-19.688q 11.813,0 19.906-8.313t 8.094-19.688l0-112 q0-11.813 -8.313-19.906t-19.688-8.094zM 224,61.562l 66.063,42.438l-132.563,0 zM 140,188l0-28 l 168,0 l0,28 l-168,0 z"  />
<glyph unicode="&#xf210;" d="M 224-64q-45.5,0 -87.063,17.719t-71.531,47.688t-47.688,71.531t-17.719,87.063t 17.719,87.063t 47.688,71.531t 71.531,47.906t 87.063,17.938t 87.063-17.938t 71.531-47.906t 47.688-71.531t 17.719-87.063t-17.719-87.063t-47.688-71.531t-71.531-47.688t-87.063-17.719zM 224,328q-45.5,0 -84.219-22.313t-61.25-61.031t-22.531-84.438t 22.531-84.438t 61.25-61.25
t 84.219-22.531t 84.219,22.531t 61.25,61.25t 22.531,84.438t-22.531,84.438t-61.25,61.031t-84.219,22.313zM 308,230l-57.313-77.438q-2.188-8.75 -9.625-14.656t-17.063-5.906q-9.188,0 -16.625,5.688t-10.063,14l-85.313,106.313l0,0.438 l0,13.563 l 14,0 l 98.438-79.188l 69.563,51.188l0,0 l 14,0 l0-14 l0,0 z"  />
<glyph unicode="&#xf219;" d="M 443.625,296.937l-20.563-20.563q-4.375-4.375 -10.5-4.375t-10.063,4.375l-15.75,15.313l-22.75-22.75q 26.25-27.125 40.906-62.563t 14.656-74.375q0-39.813 -15.313-76.125t-41.563-62.563t-62.563-41.781t-76.125-15.531t-76.125,15.531t-62.563,41.781t-41.781,62.563t-15.531,76.125q0,38.938 14.875,74.375t 41.125,62.563l-22.75,22.75l-15.75-15.313q-3.938-4.375 -10.063-4.375t-10.5,4.375l-20.563,20.563q-4.375,4.375 -4.375,10.5t 4.375,10.063
l 62.125,62.125q 3.938,4.375 10.063,4.375t 10.5-4.375l 20.563-20.563q 4.375-4.375 4.375-10.5t-4.375-10.063l-15.313-15.75l 25.813-26.25q 35.875,23.188 78.313,29.313l0,1.75 l-14.438,0 q-5.688,0 -9.844,4.156t-4.156,9.844l0,28 q0,6.125 4.156,10.063t 9.844,3.938l 84,0 q 5.688,0 9.844-3.938t 4.156-10.063l0-28 q0-5.688 -4.156-9.844t-9.844-4.156l-14,0 l0-1.75 q 42-6.125 77.875-29.313l 25.813,26.25l-15.313,15.75q-4.375,3.938 -4.375,10.063t 4.375,10.5l 20.563,20.563
q 4.375,4.375 10.5,4.375t 10.063-4.375l 62.125-62.125q 4.375-3.938 4.375-10.063t-4.375-10.5zM 224,272q-38.063,0 -70.219-18.813t-50.969-50.969t-18.813-70.219t 18.813-70.219t 50.969-50.969t 70.219-18.813t 70.219,18.813t 50.969,50.969t 18.813,70.219t-18.813,70.219t-50.969,50.969t-70.219,18.813zM 252,132q0-11.813 -8.094-19.906t-19.906-8.094q-11.375,0 -19.688,8.094
t-8.313,19.688t 8.313,19.906t 19.688,8.313q 1.313,0 4.375-0.438l 65.625,56l0,0.438 l 14,0 l0-14 l-56.438-66.063q 0.438-3.063 0.438-3.938z"  />
<glyph unicode="&#xf17c;" d="M 420.875,104q0-77.438 -10.5-113.313t-35-42q-1.313-0.438 -9.625-2.844t-13.563-3.5t-14.656-2.844t-19.906-2.625t-22.75-0.875q-45.5,0 -56,14q-4.375,6.125 -9.188,19.688t-4.813,22.313q0,29.313 12.469,42.656t 43.531,13.344q 28,0 28-14q0-0.438 -3.063-3.719t-10.063-6.781t-14.875-3.5q-6.125,0 -17.063-8.969t-10.938-19.031q0-9.188 11.375-18.594t 30.625-9.406q 8.313,0 13.563,0.438t 11.375,1.969
t 9.406,4.375t 5.469,8.094t 2.188,13.125l0,56 q0,6.125 -0.875,10.719t-2.188,7.656t-4.156,5.031t-5.031,3.063t-6.563,1.531t-7,0.438t-7.875-0.219t-8.313-0.219q-44.625,0 -56,14l-1.969,2.406t-3.281,4.156t-3.063,4.813t-3.281,7.438t-2.406,9.188q0-13.125 -13.781-30.188t-30.406-28.438t-25.813-11.375l-42,0 q-13.125,0 -33.469,15.969t-35.438,36.313t-15.094,31.719l0,112 q0,11.813 7.438,19.906t 20.563,8.094
l 56,0 q 8.75,0 18.375,10.063t 9.625,17.938l0,56 q0,12.688 11.156,20.344t 33.906,7.656q 25.375,0 47.25-8.313t 33.688-19.688q 31.063-0.438 48.125-1.313t 36.75-3.938t 27.125-8.75q 11.813-9.188 17.938-14.656t 12.688-13.781t 8.969-18.375t 2.406-23.188l0-168 zM 337.094,216q-11.594,0 -19.906-8.313t-8.313-19.688l 45.063-22.313q 10.938,8.313 10.938,22.313q0,11.375 -8.094,19.688t-19.688,8.313zM 98.875,300l-69.563,0 l-0.438,0.438q-0.875,1.75 11.813,18.813
t 23.625,29.313q 10.5,11.375 27.125,24.063t 20.563,11.375l 0.875-1.75l0-68.25 q0-5.688 -3.938-9.844t-10.063-4.156z"  />
<glyph unicode="&#xf044;" d="M 420,272l0-308 q0-11.375 -8.094-19.688t-19.688-8.313t-19.906,8.313t-8.313,19.688l0,28 l-28,0 l0-28 q0-11.375 -8.094-19.688t-19.906-8.313l-280,0 q-11.813,0 -19.906,8.313t-8.094,19.688l0,252 q0,45.5 22.531,84.219t 61.25,61.25t 84.219,22.531t 84.219-22.531t 61.25-61.25t 22.531-84.219l0-168 l 28,0 l0,308 q0,11.813 8.313,19.906t 19.688,8.094l 28,0 q 11.813,0 19.906-8.094
t 8.094-19.906l0-56 q0-11.375 -8.094-19.688t-19.906-8.313zM 280,216q0,46.375 -32.813,79.188t-79.188,32.813t-79.188-32.813t-32.813-79.188l0-210 q0-5.688 4.156-9.844t 9.844-4.156l 196,0 q 5.688,0 9.844,4.156t 4.156,9.844l0,210 zM 224,48l-112,0 q-11.375,0 -19.688,8.313t-8.313,19.906t 8.313,19.688t 19.688,8.094l 112,0 q 11.813,0 19.906-8.094t 8.094-19.688t-8.094-19.906t-19.906-8.313
z"  />
<glyph unicode="&#xf010;" d="M 420,160l-392,0 q-11.813,0 -19.906,8.094t-8.094,19.688t 8.094,19.906t 19.906,8.313l 24.5,0 q 8.75-13.125 22.531-20.563t 29.969-7.438t 29.969,7.438t 22.531,20.563l 133,0 q 8.75-13.125 22.531-20.563t 29.969-7.438t 29.969,7.438t 22.531,20.563l 24.5,0 q 11.813,0 19.906-8.313t 8.094-19.906t-8.094-19.688t-19.906-8.094zM 352.625,218.625q-8.313-4.813 -17.5-2.188t-14,10.938l-66.063,121.625
q-4.813,8.313 -2.406,17.719t 10.719,14.219t 17.5,2.188t 14-10.938l 66.063-121.625q 4.813-8.313 2.406-17.719t-10.719-14.219zM 126.875,227.375q-4.813-8.313 -14-10.938t-17.5,2.188t-10.719,14.219t 2.406,17.719l 66.063,121.625q 4.813,8.313 14,10.938t 17.5-2.188t 10.719-14.219t-2.406-17.719zM 392-36q-3.5-17.5 -12.906-22.75t-28.656-5.25l-251.125,0 q-19.688,0 -29.75,5.25t-13.563,22.75l-28,168l 392,0 z"  />
<glyph unicode="&#xf035;" d="M 423.938,328l-33.25,0 l-53.375-260.313q-2.188-8.313 -9.406-14t-15.094-5.688l-239.313,0 q-8.313,0 -15.531,5.688t-9.406,14l-42.875,164.938q-4.375,15.75 1.313,27.563t 17.5,11.813l 310.188,53.813l 7.875,38.938q 2.188,7.875 9.406,13.563t 15.094,5.688l 56.875,0 q 11.813,0 19.906-8.094t 8.094-19.688t-8.313-19.906t-19.688-8.313zM 129.938,20q 17.5,0 29.75-12.25t 12.25-29.75t-12.25-29.75t-29.75-12.25t-29.75,12.25t-12.25,29.75t 12.25,29.75
t 29.75,12.25zM 269.938,20q 17.5,0 29.75-12.25t 12.25-29.75t-12.25-29.75t-29.75-12.25t-29.75,12.25t-12.25,29.75t 12.25,29.75t 29.75,12.25z"  />
<glyph unicode="&#xf3f1;" d="M 448,90q0-11.813 -17.938-28.438t-47.031-32.156t-72.188-26.469t-86.844-10.938t-86.625,10.938t-72.188,26.469t-47.25,32.156t-17.938,28.438q0,23.188 74.375,33.688q 3.938,27.125 9.625,53.594t 14,56.219t 19.469,48.125t 22.531,18.375q 12.25,0 41.344-14t 42.656-14q 11.813,0 22.75,4.375t 18.375,9.625t 18.813,9.625t 24.063,4.375q 12.25,0 31.938-59.063t 32.375-116.813q 75.688-10.5 75.688-34.125z"  />
<glyph unicode="&#xf394;" d="M 420,160l-392,0 q-11.375,0 -19.688,8.094t-8.313,19.688t 8.094,19.906t 19.906,8.313l 24.5,0 q 8.75-13.125 22.531-20.563t 29.969-7.438t 29.969,7.438t 22.531,20.563l 133,0 q 8.75-13.125 22.531-20.563t 29.969-7.438t 29.969,7.438t 22.531,20.563l 24.5,0 q 11.813,0 19.906-8.313t 8.094-19.906t-8.313-19.688t-19.688-8.094zM 352.625,218.625q-8.313-4.813 -17.5-2.188t-14,10.938l-66.063,121.625q-4.813,8.313 -2.406,17.719
t 10.719,14.219t 17.5,2.188t 14-10.938l 66.063-121.625q 4.813-8.313 2.406-17.719t-10.719-14.219zM 126.875,227.375q-4.813-8.313 -14-10.938t-17.5,2.188t-10.719,14.219t 2.406,17.719l 66.063,121.625q 4.813,8.313 14,10.938t 17.5-2.188t 10.719-14.219t-2.406-17.719zM 392-36q-3.5-17.5 -12.906-22.75t-28.656-5.25l-251.125,0 q-19.688,0 -29.75,5.25t-13.563,22.75l-28,168l 392,0 zM 322,48l-42,0 l0,42 
q0,5.688 -4.156,9.844t-9.844,4.156t-9.844-4.156t-4.156-9.844l0-42 l-42,0 q-5.688,0 -9.844-4.156t-4.156-9.844t 4.156-9.844t 9.844-4.156l 42,0 l0-42 q0-5.688 4.156-9.844t 9.844-4.156t 9.844,4.156t 4.156,9.844l0,42 l 42,0 q 5.688,0 9.844,4.156t 4.156,9.844t-4.156,9.844t-9.844,4.156z"  />
<glyph unicode="&#xf395;" d="M 420,160l-392,0 q-11.813,0 -19.906,8.094t-8.094,19.688t 8.094,19.906t 19.906,8.313l 24.5,0 q 8.75-13.125 22.531-20.563t 29.969-7.438t 29.969,7.438t 22.531,20.563l 133,0 q 8.75-13.125 22.531-20.563t 29.969-7.438t 29.969,7.438t 22.531,20.563l 24.5,0 q 11.813,0 19.906-8.313t 8.094-19.906t-8.313-19.688t-19.688-8.094zM 352.625,218.625q-8.313-4.813 -17.5-2.188t-14,10.938l-66.063,121.625q-4.813,8.313 -2.406,17.719
t 10.719,14.219t 17.5,2.188t 14-10.938l 66.063-121.625q 4.813-8.313 2.406-17.719t-10.719-14.219zM 126.875,227.375q-4.813-8.313 -14-10.938t-17.5,2.188t-10.719,14.219t 2.406,17.719l 66.063,121.625q 4.813,8.313 14,10.938t 17.5-2.188t 10.719-14.219t-2.406-17.719zM 392-36q-3.5-17.5 -12.906-22.75t-28.656-5.25l-251.125,0 q-19.688,0 -29.75,5.25t-13.563,22.75l-28,168l 392,0 zM 322,48l-112,0 
q-5.688,0 -9.844-4.156t-4.156-9.844t 4.156-9.844t 9.844-4.156l 112,0 q 5.688,0 9.844,4.156t 4.156,9.844t-4.156,9.844t-9.844,4.156z"  />
<glyph unicode="&#xf38f;" d="M 439.469,140.531q-8.531-8.531 -20.563-8.531t-20.344,8.313l-6.563,6.563l0-182.875 q0-11.813 -8.094-19.906t-19.906-8.094l-56,0 l0,112 q0,34.563 -24.5,59.063t-59.281,24.5t-59.281-24.5t-24.5-59.063l0-112 l-56.438,0 q-11.813,0 -19.906,8.094t-8.094,19.906l0,182.875 l-6.563-6.563q-8.313-8.313 -20.344-8.313t-20.563,8.531t-8.531,20.563t 8.313,20.344l 194.25,193.813
q 8.75,8.75 21.438,8.313q 12.688,0.438 21.438-8.313l 194.25-193.813q 8.313-8.313 8.313-20.344t-8.531-20.563z"  />
<glyph unicode="&#xf390;" d="M 439.469,140.531q-8.531-8.531 -20.563-8.531t-20.344,8.75l-11.813,11.813l-36.75-188.563q-1.313-9.188 -10.281-18.594t-17.719-9.406l-195.563,0 q-8.75,0 -17.719,9.406t-10.281,18.594l-36.75,189l-12.25-12.25q-8.313-8.75 -20.344-8.75t-20.563,8.531t-8.531,20.563t 8.313,20.344l 194.25,193.813q 8.75,8.75 21.438,8.313q 12.688,0.438 21.438-8.313l 194.25-193.813q 8.313-8.313 8.313-20.344t-8.531-20.563
zM 224.219-8q 11.594,0 19.688,8.094t 8.094,19.688t-8.094,19.906t-19.688,8.313t-19.688-8.313t-8.094-19.906t 8.094-19.688t 19.688-8.094zM 224.438,216q-23.188,0 -39.594-16.406t-16.406-39.594t 16.406-39.594t 39.594-16.406t 39.375,16.406t 16.188,39.594t-16.188,39.594t-39.375,16.406z"  />
<glyph unicode="&#xf370;" d="M0-8l0,196 q0,11.813 8.094,19.906t 19.906,8.094l 28,0 l 112,0 l 112,0 l 112,0 l 28,0 q 11.375,0 19.688-8.094t 8.313-19.906l0-196 l-448,0 zM 280,244l0,28 q0,11.375 8.094,19.688t 19.906,8.313l 56,0 q 11.375,0 19.688-8.313t 8.313-19.688l0-28 l-112,0 zM 56,244l0,28 q0,11.375 8.094,19.688t 19.906,8.313l 56,0 q 11.813,0 19.906-8.313t 8.094-19.688l0-28 l-112,0 z"  />
<glyph unicode="&#xf375;" d="M 392-64q-31.938,38.938 -64.75,77q-7-14.438 -16.188-23.625q-25.375-25.375 -60.813-25.375t-60.813,25.375l-52.063,51.625q-24.938,25.375 -24.938,60.813t 24.938,60.813q 7.438,7.438 18.813,14q-62.563,39.375 -127.75,39.375l-24.5,5.25q-3.938,4.375 -3.938,10.063t 3.938,10.063l 138.688,138.688q 4.375,3.938 10.063,3.938t 10.063-3.938l 5.688-24.5q0-45.063 20.344-92.969t 64.094-91.656l 66.5-66.5q 17.5-17.5 49.656-45.719t 55.563-47.469
l 23.406-19.25zM 171.938,128.062q-10.5-10.938 -10.5-26.25t 10.5-25.813l 52.063-52.063q 10.938-10.938 26.25-10.938t 25.813,10.938q 14.438,14.438 9.625,34.563q-3.938,4.375 -6.125,6.125l-66.5,66.5q-1.313,1.313 -3.719,3.5t-3.281,3.063q-19.688,4.375 -34.125-9.625z"  />
<glyph unicode="&#xf35f;" d="M 406,20q-31.5,0 -36.75-5.25t-5.25-36.75q0-17.5 -12.25-29.75t-29.75-12.25t-29.75,12.25t-12.25,29.75q 0.438,2.625 0.438,7.219t-0.656,17.5t-3.063,24.5t-8.75,25.375t-15.969,23.406l-56,56l-56,56q-13.563,13.563 -32.594,20.563t-31.719,8.094t-24.938,0.219q-4.375-0.875 -8.75-0.875q-17.5,0 -29.75,12.25t-12.25,29.75t 12.25,29.75t 29.75,12.25q 31.5,0 36.75,5.25t 5.25,36.75q0,17.5 12.25,29.75t 29.75,12.25t 29.75-12.25
t 12.25-29.75q0-4.375 -0.875-8.313q-0.875-12.25 0.219-24.938t 8.094-31.938t 20.563-32.813q 11.813-11.375 35-34.781t 42.219-42.438l 34.781-34.781q 9.188-9.188 22.094-15.531t 24.063-8.969t 23.406-3.5t 17.938-0.656t 9.625,0.656l 0.656,0 l 0.219,0 q 17.5,0 29.75-12.25t 12.25-29.75t-12.25-29.75t-29.75-12.25z"  />
<glyph unicode="&#xf34e;" d="M 364,146q0-31.5 13.125-56.656t 33.688-35.656q-19.25-49.875 -47.25-83.781t-55.563-33.906q-11.813,0 -23.406,7l-23.188,14t-23.406,7t-23.406-7l-23.188-14t-23.406-7q-21.875,0 -43.313,23.188t-36.094,57.313t-23.625,72.844t-8.969,70.656q0,46.375 32.813,79.188t 79.188,32.813q 11.813,0 24.938-7t 24.719-14t 20.344-7q 9.625,0 21.219,7t 24.281,14t 24.5,7
q 25.375,0 50.094-10.719t 43.531-29.094q-17.063-12.688 -27.344-35.656t-10.281-50.531zM 238,286q-0.875,16.188 6.781,34.344t 23.188,33.469t 33.688,23.188t 34.344,7q 0.875-16.188 -6.781-34.344t-23.188-33.688t-33.688-23.406t-34.344-6.563z"  />
<glyph unicode="&#xf42c;" d="M 420,216q0-56 -28-56q-1.313,0 -2.188-2.188q 2.188-14 2.188-25.813q0-47.25 -23.844-93.844t-62.344-74.156l-163.625,0 q-43.313,31.063 -67.813,86.188q-7.875-2.188 -18.375-2.188q-14.875,0 -28,20.344t-20.563,49.219t-7.438,56.438q0,70 56,70q 22.313,0 35-9.625q 23.625,30.625 58.406,48.125t 74.594,17.5q 42.438,0 79.188-19.906t 59.938-54.031q 0.875,2.625 0.875,3.938q0,28.875 20.563,49.438
t 49.438,20.563q 7,0 14-1.313l0-54.688 q-11.813,0 -19.906-8.094t-8.094-19.906zM 56,216q-28,0 -28-49.875q0-24.938 12.031-52.719t 24.281-35.219q-8.313,28.438 -8.313,53.813q0,37.188 16.188,71.313q-7.438,12.688 -16.188,12.688zM 196,328.219q0,11.594 8.094,19.688t 19.688,8.094t 19.906-8.094t 8.313-19.688t-8.313-19.906t-19.906-8.313t-19.688,8.313t-8.094,19.906z"  />
<glyph unicode="&#xf400;" d="M 434-64l-154,0 l0,56 q0,23.188 -16.406,39.594t-39.594,16.406t-39.594-16.406t-16.406-39.594l0-56 l-154,0 q-5.688,0 -9.844,4.156t-4.156,9.844l0,210 l0,14 l0,42 l 28,0 l0-14 q0-5.688 4.156-9.844t 9.844-4.156t 9.844,4.156t 4.156,9.844l0,14 l 28,0 l0-14 q0-5.688 4.156-9.844t 9.844-4.156t 9.844,4.156t 4.156,9.844l0,14 l 28,0 l0,84 l-14,0 q-5.688,0 -9.844,4.156
t-4.156,9.844l0,56 q0,5.688 4.156,9.844t 9.844,4.156l 14,0 l0-14 q0-5.688 4.156-9.844t 9.844-4.156t 9.844,4.156t 4.156,9.844l0,14 l 28,0 l0-14 q0-5.688 4.156-9.844t 9.844-4.156l 28,0 q 5.688,0 9.844,4.156t 4.156,9.844l0,14 l 28,0 l0-14 q0-5.688 4.156-9.844t 9.844-4.156t 9.844,4.156t 4.156,9.844l0,14 l 14,0 q 5.688,0 9.844-4.156t 4.156-9.844l0-56 
q0-5.688 -4.156-9.844t-9.844-4.156l-14,0 l0-84 l 28,0 l0-14 q0-5.688 4.156-9.844t 9.844-4.156t 9.844,4.156t 4.156,9.844l0,14 l 28,0 l0-14 q0-5.688 4.156-9.844t 9.844-4.156t 9.844,4.156t 4.156,9.844l0,14 l 28,0 l0-42 l0-14 l0-210 q0-5.688 -4.156-9.844t-9.844-4.156zM 112,104q0,11.375 -8.313,19.688t-19.906,8.313t-19.688-8.313t-8.094-19.688l0-28 l 56,0 l0,28 z
M 252,272q0,11.375 -8.313,19.688t-19.906,8.313t-19.688-8.313t-8.094-19.688l0-28 l 56,0 l0,28 zM 392,104q0,11.375 -8.313,19.688t-19.906,8.313t-19.688-8.313t-8.094-19.688l0-28 l 56,0 l0,28 z"  />
<glyph unicode="&#x2666;" d="M 392,356l 56-112l-112,0 zM 252,356l 112,0 l-56-112zM 168,244l 56,112l 56-112l-112,0 zM 84,356l 112,0 l-56-112zM0,244l 56,112l 56-112l-112,0 zM 196-36l-196,252l 112,0 zM 308,216l-84-252l-84,252l 168,0 zM 448,216l-196-252l 84,252l 112,0 z"  />
<glyph unicode="&#xf412;" d="M 252,132q-56,40.688 -56,97.563q0,21.875 7.438,42.438l-7.875,7.875l-116.813-116.813l 90.125-171.063l 111.125,0 q 11.375,0 19.688-8.313t 8.313-19.906t-8.313-19.688t-19.688-8.094l-224,0 q-11.375,0 -19.688,8.094t-8.313,19.688t 8.313,19.906t 19.688,8.313l 81.375,0 l-79.625,150.063l-5.688-5.688q-3.938-4.375 -9.844-4.375t-10.063,4.156t-4.156,10.063t 3.938,9.844l 12.25,12.25l-14,26.688q-3.063,4.813 -1.531,10.5t 6.563,8.75t 10.5,1.531
t 8.531-6.781l 10.5-20.125l 112,111.563q-10.5,15.75 -8.75,35t 15.313,32.813q 15.75,15.75 38.063,15.75t 38.063-15.75l 20.125-20.125q 21,7.438 42.438,7.438q 57.313,0 98-56z"  />
<glyph unicode="&#xf42d;" d="M 448,48q-42-21 -66.5-45.5t-45.5-66.5q0,7 -0.656,14.219t-2.406,15.75t-3.063,14.656t-4.375,15.969t-4.156,14t-4.594,14.875t-4.375,12.906q-74.375-52.063 -168.219,41.781t-41.781,168.219q-1.75,0.438 -12.688,4.156t-15.094,4.813t-14,4.156t-15.969,4.375t-14.656,3.063t-15.75,2.406t-14.219,0.656q 42,21 66.5,45.5t 45.5,66.5q0-7 0.656-14.219t 2.406-15.75
t 3.063-14.656t 4.375-15.969t 4.156-14t 4.813-15.094t 4.156-12.688q 74.375,52.063 168.219-41.781t 41.781-168.219q 2.188-0.438 12.906-4.156t 14.875-4.813t 14-4.156t 15.969-4.375t 14.656-3.063t 15.75-2.406t 14.219-0.656z"  />
<glyph unicode="&#xf39c;" d="M 420-64l-392,0 q-11.375,0 -19.688,8.313t-8.313,19.688l0,392 q0,11.375 8.313,19.688t 19.688,8.313l 112,0 q0-40.25 -5.031-74.156t-15.969-62.781t-29.969-49.219t-45.281-29.969q 37.625-35.875 56.438-119.875l 247.625,0 q 18.813,84 56.438,119.875q-26.25,9.625 -45.281,29.969t-29.969,49.219t-15.969,62.781t-5.031,74.156l 112,0 q 11.813,0 19.906-8.313t 8.094-19.688l0-392 
q0-11.813 -8.094-19.906t-19.906-8.094zM 105.438,20q 4.375-29.313 5.688-56l 225.75,0 q 1.313,26.688 5.688,56l-237.125,0 zM 168,384l 112,0 q0-64.75 13.125-112l-138.25,0 q 13.125,47.25 13.125,112z"  />
<glyph unicode="&#xf3dc;" d="M 448,104l0-84 q0-11.375 -8.313-19.688t-19.688-8.313l-252,0 l0,14 q0,5.688 -4.156,9.844t-9.844,4.156t-9.844-4.156t-4.156-9.844l0-14 l-112,0 q-11.375,0 -19.688,8.313t-8.313,19.688l0,84 q 23.188,0 39.594,16.406t 16.406,39.594t-16.406,39.594t-39.594,16.406l0,84 q0,11.375 8.313,19.688t 19.688,8.313l 112,0 l0-14 q0-5.688 4.156-9.844t 9.844-4.156t 9.844,4.156t 4.156,9.844l0,14 l 252,0 
q 11.375,0 19.688-8.313t 8.313-19.688l0-84 q-23.188,0 -39.594-16.406t-16.406-39.594t 16.406-39.594t 39.594-16.406zM 168,258q0,5.688 -4.156,9.844t-9.844,4.156t-9.844-4.156t-4.156-9.844l0-28 q0-5.688 4.156-9.844t 9.844-4.156t 9.844,4.156t 4.156,9.844l0,28 zM 168,174q0,5.688 -4.156,9.844t-9.844,4.156t-9.844-4.156t-4.156-9.844l0-28 
q0-5.688 4.156-9.844t 9.844-4.156t 9.844,4.156t 4.156,9.844l0,28 zM 168,90q0,5.688 -4.156,9.844t-9.844,4.156t-9.844-4.156t-4.156-9.844l0-28 q0-5.688 4.156-9.844t 9.844-4.156t 9.844,4.156t 4.156,9.844l0,28 z"  />
<glyph unicode="&#xf3ee;" d="M 440.563-56.563q-7.438-7.438 -17.938-7.438t-17.938,7.438l-185.063,185.063q-35.875-24.5 -79.188-24.5q-10.5,0 -23.188,1.75l 161,161q 1.75-12.688 1.75-23.188q0-43.313 -24.5-79.188l 185.063-185.063q 7.438-7.438 7.438-17.938t-7.438-17.938zM0,180.562l 203.438,203.438q 25.813-11.375 45.719-31.281t 31.281-45.719l-203.438-203.438q-25.813,11.375 -45.719,31.281t-31.281,45.719zM 0.438,243.562q0,38.063 18.594,70.438
t 50.969,50.969t 70.438,18.594q 10.5,0 22.75-1.75l-161-161q-1.75,12.25 -1.75,22.75z"  />
<glyph unicode="&#xf039;" d="M 141.75,187.125q 24.063-13.563 68.25-33.469t 81.594-38.5t 61.469-36.094q 69.563-51.188 94.938-87.063l-56-56q-28,56 -60.375,94.5q-81.375-66.938 -172.375-16.625q-33.688,18.375 -59.063,40.031t-42.219,41.125t-28.219,49t-17.281,50.094t-8.75,58.844t-3.281,61.031t-0.438,70q 20.125-22.313 47.688-35.438t 56-17.719t 59.281-7t 60.813-7t 57.531-14t 52.5-31.719
t 42.875-56.438q 15.313-30.188 15.313-68.688q0-24.938 -8.313-47.25q-35,21 -92.094,49t-105.438,52.5t-74.156,43.75q-23.625,17.5 -47.25,48.563q-6.563,8.313 -7.875,5.25q-0.875-3.063 -0.875-25.813q0-13.563 22.313-34.563t 63.438-50.313z"  />
<glyph unicode="&#xf067;" d="M 84-64l 0.438,0.438q-38.5,1.75 -60.375,23.625q-21.875,21.438 -23.625,59.938l-0.438,0 l0,140 l 0.438,0 q0,31.5 20.344,70.875t 56.656,75.688t 75.688,56.656t 70.875,20.344l0,0.438 l 140,0 l0-0.438 q 38.5-1.75 59.938-23.625q 21.875-21.875 23.625-60.375l 0.438,0.438l0-364 l-364,0 zM 420-36l-98,98l-126-98l 224,0 zM 295.313,72.062l-155.313,59.938l-23.625-164.5q 41.563,8.313 88.594,35.438t 90.344,69.125zM 28,6q 0.875-2.188 3.719-8.531
t 5.469-11.813t 4.813-7.656q 12.688-12.688 23.188-14.656t 33.688,1.531q-69.125,141.313 -70.875,145.25l0-104.125 zM 239.969,343.969q-20.781,20.781 -64.75,6.125t-85.313-56t-56-85.313t 6.125-64.75t 64.75-6.125t 85.313,56t 56,85.313t-6.125,64.75zM 311.938,88.687q 41.563,43.313 68.688,90.344t 35.438,88.594l-164.063-23.625zM 405.125,342q-2.188,2.188 -7.438,4.813t-11.813,5.469t-8.313,3.719l-103.688,0 l 144.375-70
q 3.5,22.75 1.531,33.25t-14.656,22.75z"  />
<glyph unicode="&#xf148;" d="M 392-36l0-14 q0-5.688 -4.156-9.844t-9.844-4.156l-28,0 q-5.688,0 -9.844,4.156t-4.156,9.844l0,14 l-224,0 l0-14 q0-5.688 -4.156-9.844t-9.844-4.156l-28,0 q-5.688,0 -9.844,4.156t-4.156,9.844l0,14 q-23.188,0 -39.594,16.406t-16.406,39.594l0,28 q0,30.625 15.969,63.219t 42.438,54.688t 53.594,22.094q 11.375,0 19.688,8.094t 8.313,19.906l0,28 q0,11.375 8.094,19.688
t 19.906,8.313t 19.906-8.313t 8.094-19.688l 56,0 q0,11.375 8.094,19.688t 19.906,8.313t 19.906-8.313t 8.094-19.688l0-28 q0-11.813 8.094-19.906t 19.906-8.094q 27.125,0 53.594-22.094t 42.438-54.688t 15.969-63.219l0-28 q0-23.188 -16.406-39.594t-39.594-16.406zM 224,160q-35,0 -59.5-24.719t-24.5-59.5t 24.5-59.281t 59.5-24.5t 59.5,24.5t 24.5,59.5t-24.5,59.5
t-59.5,24.5zM 224,20q-23.188,0 -39.594,16.406t-16.406,39.594t 16.406,39.594t 39.594,16.406t 39.594-16.406t 16.406-39.594t-16.406-39.594t-39.594-16.406zM 392,216l-14.219,0 t-12.469,0.438t-12.031,1.313t-8.75,2.406t-6.563,3.938t-1.969,5.906l0,45.063 q-10.938,9.625 -43.75,17.281t-68.25,7.656t-68.25-7.656t-43.75-17.281l0-45.063 q0-3.5 -1.969-5.906t-6.563-3.938
t-8.75-2.406t-12.031-1.313t-12.469-0.438l-14.219,0 l-15.313,0 t-12.688,0.438t-11.813,1.313t-8.313,2.406t-6.125,3.938t-1.75,5.906l0,38.063 q0,27.125 30.406,47.469t 80.719,30.406t 112.875,10.063t 112.875-10.063t 80.719-30.406t 30.406-47.469l0-38.063 q0-3.5 -1.75-5.906t-6.125-3.938t-8.313-2.406t-11.813-1.313t-12.688-0.438l-15.313,0 z"  />
<glyph unicode="&#xf19a;" d="M 407.75-23.75q-37.188-37.188 -87.063-40.031t-82.688,29.969q-11.375,11.813 -17.938,20.344t-10.063,19.469q0,10.938 -5.688,25.156t-16.188,25.156q-13.125,13.125 -27.344,19.469t-24.281,4.594q-21.438,24.938 -23.406,63.219t 16.844,68.469l-61.688,61.688q-17.5-5.25 -30.188,7l-29.313,29.313q-8.75,9.188 -8.75,21.875t 8.75,21.438l 21.875,21.438q 8.75,9.188 21.438,9.188t 21.875-9.188l 29.313-28.875q 12.25-12.688 7-30.188l 61.688-61.688
q 30.188,18.813 68.469,16.844t 63.219-23.406q-1.75-10.063 4.594-24.281t 19.469-27.344q 10.938-10.5 25.156-16.188t 25.156-5.688q 10.938-3.5 19.469-10.063t 20.344-17.938q 32.813-32.813 29.969-82.688t-40.031-87.063zM 238,188q-17.5,0 -29.75-12.25t-12.25-29.75t 12.25-29.75t 29.75-12.25t 29.75,12.25t 12.25,29.75t-12.25,29.75t-29.75,12.25zM 375.375,76l-67.375-67.375l 16.625-16.625l 67.375,67.375z"  />
<glyph unicode="&#xf19c;" d="M 448,20l0-3.5 q0-7 -0.219-10.063t-1.313-7.219t-4.156-5.688t-8.313-1.531l-98,65.188l0-65.188 q0-11.375 -8.313-19.688t-19.688-8.313l-252,0 q-11.813,0 -19.906,8.094t-8.094,19.906l0,168 q0,11.375 8.094,19.688t 19.906,8.313l 28,0 l 196,0 l 28,0 q 11.375,0 19.688-8.313t 8.313-19.688l0-65.188 l 98,65.188q 5.25,0 8.313-1.531t 4.156-5.688t 1.313-7.219t 0.219-10.063l0-3.5 l0-112 zM0,271.781
q0,34.781 24.5,59.5t 59.281,24.719t 59.5-24.5t 24.719-59.5t-24.719-59.5t-59.5-24.5t-59.281,24.5t-24.5,59.281zM 196,271.781q0,34.781 24.5,59.5t 59.281,24.719t 59.5-24.5t 24.719-59.5t-24.719-59.5t-59.5-24.5t-59.281,24.5t-24.5,59.281z"  />
<glyph unicode="&#xf19d;" d="M 420-64l0,14 q0,5.688 -4.156,9.844t-9.844,4.156l-28,0 q-5.688,0 -9.844-4.156t-4.156-9.844l0-14 l-280,0 l0,14 q0,5.688 -4.156,9.844t-9.844,4.156l-28,0 q-5.688,0 -9.844-4.156t-4.156-9.844l0-14 q-11.813,0 -19.906,8.313t-8.094,19.688l0,364 q0,11.813 8.094,19.906t 19.906,8.094l0-14 q0-5.688 4.156-9.844t 9.844-4.156l 28,0 q 5.688,0 9.844,4.156t 4.156,9.844l0,14 
l 280,0 l0-14 q0-5.688 4.156-9.844t 9.844-4.156l 28,0 q 5.688,0 9.844,4.156t 4.156,9.844l0,14 q 11.375,0 19.688-8.094t 8.313-19.906l0-364 q0-11.375 -8.313-19.688t-19.688-8.313zM 84,286q0,5.688 -4.156,9.844t-9.844,4.156l-28,0 q-5.688,0 -9.844-4.156t-4.156-9.844l0-28 q0-5.688 4.156-9.844t 9.844-4.156l 28,0 q 5.688,0 9.844,4.156t 4.156,9.844l0,28 zM 84,202
q0,5.688 -4.156,9.844t-9.844,4.156l-28,0 q-5.688,0 -9.844-4.156t-4.156-9.844l0-28 q0-5.688 4.156-9.844t 9.844-4.156l 28,0 q 5.688,0 9.844,4.156t 4.156,9.844l0,28 zM 84,118q0,5.688 -4.156,9.844t-9.844,4.156l-28,0 q-5.688,0 -9.844-4.156t-4.156-9.844l0-28 q0-5.688 4.156-9.844t 9.844-4.156l 28,0 q 5.688,0 9.844,4.156t 4.156,9.844l0,28 zM 84,34
q0,5.688 -4.156,9.844t-9.844,4.156l-28,0 q-5.688,0 -9.844-4.156t-4.156-9.844l0-28 q0-5.688 4.156-9.844t 9.844-4.156l 28,0 q 5.688,0 9.844,4.156t 4.156,9.844l0,28 zM 420,286q0,5.688 -4.156,9.844t-9.844,4.156l-28,0 q-5.688,0 -9.844-4.156t-4.156-9.844l0-28 q0-5.688 4.156-9.844t 9.844-4.156l 28,0 q 5.688,0 9.844,4.156t 4.156,9.844l0,28 zM 420,202
q0,5.688 -4.156,9.844t-9.844,4.156l-28,0 q-5.688,0 -9.844-4.156t-4.156-9.844l0-28 q0-5.688 4.156-9.844t 9.844-4.156l 28,0 q 5.688,0 9.844,4.156t 4.156,9.844l0,28 zM 420,118q0,5.688 -4.156,9.844t-9.844,4.156l-28,0 q-5.688,0 -9.844-4.156t-4.156-9.844l0-28 q0-5.688 4.156-9.844t 9.844-4.156l 28,0 q 5.688,0 9.844,4.156t 4.156,9.844l0,28 zM 420,34
q0,5.688 -4.156,9.844t-9.844,4.156l-28,0 q-5.688,0 -9.844-4.156t-4.156-9.844l0-28 q0-5.688 4.156-9.844t 9.844-4.156l 28,0 q 5.688,0 9.844,4.156t 4.156,9.844l0,28 z"  />
<glyph unicode="&#xf19b;" d="M 392-64l-336,0 q-23.188,0 -39.594,16.406t-16.406,39.594l0,224 q0,23.188 16.406,39.594t 39.594,16.406l 40.688,0 l 18.375,41.125q 4.813,18.375 24.063,30.625t 42.875,12.25l 84,0 q 23.625,0 42.875-12.25t 23.625-30.625l 18.813-41.125l 40.688,0 q 23.188,0 39.594-16.406t 16.406-39.594l0-224 q0-23.188 -16.406-39.594t-39.594-16.406zM 224,244q-38.063,0 -70.219-18.813t-50.969-50.969t-18.813-70.219t 18.813-70.219
t 50.969-50.969t 70.219-18.813t 70.219,18.813t 50.969,50.969t 18.813,70.219t-18.813,70.219t-50.969,50.969t-70.219,18.813zM 224-8q-46.375,0 -79.188,32.813t-32.813,79.188t 32.813,79.188t 79.188,32.813t 79.188-32.813t 32.813-79.188t-32.813-79.188t-79.188-32.813zM 224,188q-35,0 -59.5-24.5t-24.5-59.5t 24.5-59.5t 59.5-24.5t 59.5,24.5t 24.5,59.5t-24.5,59.5t-59.5,24.5z"  />
<glyph unicode="&#xf216;" d="M 420,328l-28,0 q-11.375,0 -19.688-8.313t-8.313-19.688l0-196 q0-23.188 -16.406-39.594t-39.594-16.406l-28,0 l0-56 q 11.813,0 19.906-8.313t 8.094-19.906t-8.094-19.688t-19.906-8.094l-28,0 l-196,0 l-28,0 q-11.813,0 -19.906,8.094t-8.094,19.688t 8.094,19.906t 19.906,8.313l0,363.563 q0,11.813 8.094,19.906t 19.906,8.094l 196,0 q 11.375,0 19.688-8.094t 8.313-19.906l0-251.563 
q 11.813,0 19.906,8.094t 8.094,19.906l0,196 q0,23.188 16.406,39.375t 39.594,16.188l 28,0 l 28,0 q 11.813,0 19.906-8.094t 8.094-19.688t-8.094-19.688t-19.906-8.094zM 252,300q0,11.375 -8.094,19.688t-19.906,8.313l-140,0 q-11.375,0 -19.688-8.313t-8.313-19.688l0-56 q0-11.813 8.094-19.906t 19.906-8.094l 140,0 q 11.813,0 19.906,8.094t 8.094,19.906l0,56 z"  />
<glyph unicode="&#xf21b;" d="M 441.438,228.687l-90.125-62.125q-1.75-1.75 -5.688-3.063q-3.063-3.5 -9.625-3.5l-14,0 l-0.438,0 l-69.563,0 l0-196 q0-11.375 -8.313-19.688t-19.906-8.313t-19.688,8.313t-8.094,19.688l0,196 l-168,0 q-11.813,0 -19.906,8.094t-8.094,19.906l0,112 q0,11.375 8.094,19.688t 19.906,8.313l 168,0 l0,28 q0,11.375 8.094,19.688t 19.688,8.313t 19.906-8.313t 8.313-19.688l0-28 l 61.688,0 q 8.313,0.438 16.188,0l 6.125,0 q 6.125,0 9.188-3.063q 4.375-1.313 6.125-3.063
l 90.125-62.125q 6.563-6.563 6.563-15.531t-6.563-15.531z"  />
<glyph unicode="&#xf220;" d="M 354.375,86.937l-119-150.938l-119,150.938q-31.938,33.25 -43.531,78.094t0,89.688t 43.75,78.313t 75.469,45.281t 86.625,0t 75.469-45.281t 43.75-78.313t0-89.688t-43.531-78.094zM 235.594,327.562q-46.594,0 -79.406-32.813t-32.813-79.188t 32.813-78.969t 79.406-32.594t 79.406,32.594t 32.813,78.969t-32.813,79.188t-79.406,32.813z"  />
<glyph unicode="&#xf21d;" d="M 434-8l-32.375,32.375q-31.063-41.125 -77.656-64.75t-99.969-23.625t-99.969,23.625t-77.656,64.75l-32.375-32.375q-5.688,0 -9.844,4.156t-4.156,9.844l0,84 q0,5.688 4.156,9.844t 9.844,4.156l 84,0 q 5.688,0 9.844-4.156t 4.156-9.844l-25.813-25.813q 19.25-27.563 47.688-45.719t 62.125-23.844l0,137.375 l-28,0 q-11.375,0 -19.688,8.094t-8.313,19.688t 8.313,19.906t 19.688,8.313l 28,0 l0,33.25 
q-24.938,8.75 -40.469,30.188t-15.531,48.563q0,35 24.5,59.5t 59.5,24.5t 59.5-24.719t 24.5-59.281q0-27.125 -15.531-48.563t-40.469-30.188l0-33.25 l 28,0 q 11.813,0 19.906-8.313t 8.094-19.906t-8.094-19.688t-19.906-8.094l-28,0 l0-137.375 q 33.688,5.688 62.125,23.844t 47.688,45.719l-25.813,25.813q0,5.688 4.156,9.844t 9.844,4.156l 84,0 q 5.688,0 9.844-4.156t 4.156-9.844l0-84 
q0-5.688 -4.156-9.844t-9.844-4.156zM 223.781,328q-11.594,0 -19.688-8.094t-8.094-19.688t 8.094-19.906t 19.688-8.313t 19.906,8.313t 8.313,19.688t-8.313,19.688t-19.906,8.313z"  />
<glyph unicode="&#xf234;" d="M 420-64l-28,0 l0,336 l 28,0 q 11.813,0 19.906-8.094t 8.094-19.906l0-280 q0-11.375 -8.094-19.688t-19.906-8.313zM 364-64l-280,0 l0,336 l 28,0 l0,28 q0,35 24.5,59.719t 59.5,24.719l 56,0 q 35,0 59.5-24.719t 24.5-59.719l0-28 l 28,0 l0-336 zM 280,300q0,11.813 -8.313,19.906t-19.688,8.094l-56,0 q-11.813,0 -19.906-8.094t-8.094-19.906l0-28 l 112,0 l0,28 zM0-36l0,280 
q0,11.813 8.094,19.906t 19.906,8.094l 28,0 l0-336 l-28,0 q-11.813,0 -19.906,8.313t-8.094,19.688z"  />
<glyph unicode="&#xf235;" d="M 296.625,20l-145.25,0 q-20.563,14.438 -38.938,33.25q-14.875-5.25 -28.438-5.25q-35,0 -59.5,24.719t-24.5,59.281q0,27.563 16.188,49.219t 41.563,30.406q 0.438,2.625 0.438,4.375l 331.625,0 q 2.188-15.313 2.188-56q0-19.688 -9.188-41.125t-24.063-39.813t-30.406-33.031t-31.719-26.031zM 56,160q0,6.563 0.438,20.563q-13.125-7.438 -20.781-20.344t-7.656-28.219q0-23.188 16.406-39.594t 39.594-16.406q 1.75,0 7,0.875
q-35,44.188 -35,83.125zM 252,300q0-10.063 3.938-24.063q 17.063-12.25 22.313-31.938l-28,0 q-0.875,6.125 -2.188,10.5q-24.063,16.625 -24.063,45.5q0,23.188 16.406,39.594t 39.594,16.406q 6.563,0 14-1.75q-18.375-4.813 -30.188-19.688t-11.813-34.563zM 168,328q0-10.063 3.938-24.063q 24.063-17.063 24.063-45.938q0-6.125 -2.188-14l-27.563,0 q 1.75,7.875 1.75,14q0,10.5 -3.938,24.5q-24.063,16.625 -24.063,45.5q0,23.188 16.406,39.594
t 39.594,16.406q 6.563,0 14-1.75q-18.375-4.813 -30.188-19.688t-11.813-34.563zM 336-64l-224,0 q-24.063,0 -50.75,9.406t-43.969,22.75t-17.281,23.844l 448,0 q0-10.5 -17.281-23.844t-43.969-22.75t-50.75-9.406z"  />
<glyph unicode="&#xf236;" d="M 252,132l0-140 l 56,0 q 11.813,0 19.906-8.313t 8.094-19.906t-8.094-19.688t-19.906-8.094l-168,0 q-11.375,0 -19.688,8.094t-8.313,19.688t 8.313,19.906t 19.688,8.313l 56,0 l0,140 l-192.063,209.563q-3.938,7 -3.938,14q0,11.813 8.313,19.906t 19.688,8.094l 392,0 q 11.375,0 19.688-8.094t 8.313-19.906q0-7 -3.938-14zM 28,355.562l 104.563-111.563l 38.063,0 l 3.063,5.688l-31.938,57.313q-2.625,5.25 -1.094,10.719t 6.563,8.313
t 10.5,1.313t 8.531-6.344l 28.875-52.063q 7.875,3.063 14.875,3.063q 13.563,0 24.281-7.875t 15.094-20.125l 66.063,0 l 104.563,111.563l-392,0 z"  />
<glyph unicode="&#xf238;" d="M 252,107.5l0-115.5 l 56,0 q 11.375,0 19.688-8.094t 8.313-19.688t-8.313-19.906t-19.688-8.313l-168,0 q-11.813,0 -19.906,8.313t-8.094,19.906t 8.094,19.688t 19.906,8.094l 56,0 l0,115.5 q-48.563,11.813 -80.281,57.969t-31.719,106.531q0,63.875 35.875,112l 208.25,0 q 35.875-48.125 35.875-112q0-60.375 -31.938-106.531t-80.063-57.969zM 313.25,356l-178.5,0 q-22.75-37.625 -22.75-84
q0-29.313 9.188-56l 205.188,0 q 9.625,26.688 9.625,56q0,46.375 -22.75,84z"  />
<glyph unicode="&#xf23f;" d="M 420.438,48l-35.875,0 q 7.875-13.563 7.875-28q0-23.188 -16.406-39.594t-39.594-16.406t-39.594,16.406t-16.406,39.594q0,14.438 7.875,28l-127.75,0 q 7.875-13.563 7.875-28q0-23.188 -16.406-39.594t-39.594-16.406t-39.594,16.406t-16.406,39.594q0,14.438 7.875,28l-35.875,0 q-11.375,0 -19.688,8.094t-8.313,19.906l0,111.125 q-0.438,12.688 8.313,21.875l 54.688,54.688q 9.625,9.188 23.188,8.313l 81.813,0 l0,28 
q0,11.813 8.313,19.906t 19.688,8.094l 224,0 q 11.375,0 19.688-8.313t 8.313-19.688l0-224 q0-11.375 -8.094-19.688t-19.906-8.313zM 168.438,230q0,5.688 -4.156,9.844t-9.844,4.156l-68.688,0 l-57.313-57.313l0-40.688 q0-5.688 4.156-9.844t 9.844-4.156l 112,0 q 5.688,0 9.844,4.156t 4.156,9.844l0,84 z"  />
<glyph unicode="&#xf244;" d="M 336-8q-13.563,0 -28,5.25l0-5.25 q0-23.188 -16.406-39.594t-39.594-16.406l-168,0 q-23.188,0 -39.594,16.406t-16.406,39.594l0,308 q0,3.063 0.875,7q-0.875,4.813 -0.875,7q0,15.75 10.063,27.344t 25.375,13.781q 7.438,13.125 20.344,21t 28.219,7.875q 11.813,0 22.75-4.813q 9.188,4.813 19.25,4.813q 19.25,0 31.938-14.875q 16.188,14.875 38.063,14.875q 15.313,0 28.219-7.875t 20.344-21q 15.313-2.188 25.375-13.781t 10.063-27.344
q0-2.188 -0.875-7q 0.875-3.938 0.875-7l0-33.25 q 14.438,5.25 28,5.25q 35,0 59.5-24.5t 24.5-59.5l0-112 q0-35 -24.5-59.5t-59.5-24.5zM 56,20q0-11.813 8.313-19.906t 19.688-8.094l 168,0 q 11.813,0 19.906,8.094t 8.094,19.906l0,196 l-224,0 l0-196 zM 364,178.812q0,15.313 -12.25,26.25t-29.75,10.938q-7,0 -14-2.188l0-163.625 q 7.438-2.188 14-2.188q 17.5,0 29.75,10.938t 12.25,26.25l0,93.625 z"  />
<glyph unicode="&#xf25e;" d="M 420-64l-392,0 q-11.375,0 -19.688,8.313t-8.313,19.688l0,168 l 168,0 l0-28 q0-11.375 8.313-19.688t 19.688-8.313l 56,0 q 11.813,0 19.906,8.313t 8.094,19.688l0,28 l 168,0 l0-168 q0-11.813 -8.313-19.906t-19.688-8.094zM 252,132.219q0-11.594 -8.094-19.906t-19.688-8.313t-19.906,8.313t-8.313,19.906t 8.313,19.688t 19.906,8.094t 19.688-8.094t 8.094-19.688zM 252,188l-56,0 q-11.375,0 -19.688-8.094
t-8.313-19.906l-168,0 l0,84 q0,11.813 8.094,19.906t 19.906,8.094l 84,0 l0,28 q0,35 24.5,59.5t 59.5,24.5l 56,0 q 35,0 59.5-24.5t 24.5-59.5l0-28 l 84,0 q 11.375,0 19.688-8.094t 8.313-19.906l0-84 l-168,0 q0,11.813 -8.094,19.906t-19.906,8.094zM 280,300q0,11.813 -8.094,19.906t-19.906,8.094l-56,0 q-11.375,0 -19.688-8.094t-8.313-19.906l0-28 l 112,0 l0,28 z"  />
<glyph unicode="&#xf25f;" d="M 392-64l-336,0 q-23.188,0 -39.594,16.406t-16.406,39.594l0,140 q0,11.813 8.094,19.906t 19.906,8.094l 28,0 l0-28 q0-11.375 8.094-19.688t 19.906-8.313l 56,0 q 11.813,0 19.906,8.313t 8.094,19.688l0,28 l 112,0 l0-28 q0-11.375 8.094-19.688t 19.906-8.313l 56,0 q 11.813,0 19.906,8.313t 8.094,19.688l0,28 l 28,0 q 11.813,0 19.906-8.094t 8.094-19.906l0-140 q0-23.188 -16.406-39.594
t-39.594-16.406zM 350,188q 5.688,0 9.844-4.156t 4.156-9.844l0-28 q0-5.688 -4.156-9.844t-9.844-4.156l-28,0 q-5.688,0 -9.844,4.156t-4.156,9.844l0,28 q0,5.688 4.156,9.844t 9.844,4.156l 28,0 zM 126,188q 5.688,0 9.844-4.156t 4.156-9.844l0-28 q0-5.688 -4.156-9.844t-9.844-4.156l-28,0 q-5.688,0 -9.844,4.156t-4.156,9.844l0,28 q0,5.688 4.156,9.844
t 9.844,4.156l 28,0 zM 420,188l-28,0 q0,11.813 -8.094,19.906t-19.906,8.094l-56,0 q-11.813,0 -19.906-8.094t-8.094-19.906l-112,0 q0,11.813 -8.313,19.906t-19.688,8.094l-56,0 q-11.813,0 -19.906-8.094t-8.094-19.906l-28,0 q-11.813,0 -19.906,8.313t-8.094,19.688q0,3.063 0.438,5.688q 2.188,21.438 18.156,35.875t 37.406,14.438l 56,0 l0,28 q0,35 24.5,59.5t 59.5,24.5l 56,0 q 35,0 59.5-24.5
t 24.5-59.5l0-28 l 56,0 q 21.438,0 37.406-14.438t 18.156-35.875q 0.438-2.625 0.438-5.688q0-11.375 -8.094-19.688t-19.906-8.313zM 280,300q0,11.813 -8.313,19.906t-19.688,8.094l-56,0 q-11.813,0 -19.906-8.094t-8.094-19.906l0-28 l 112,0 l0,28 z"  />
<glyph unicode="&#xf260;" d="M 434,188l-182,0 l0,56 l 182,0 q 5.688,0 9.844-3.938t 4.156-10.063l0-28 q0-5.688 -4.156-9.844t-9.844-4.156zM 280,272l-140,0 q-23.188,0 -39.594,16.406t-16.406,39.594t 16.406,39.594t 39.594,16.406q 23.625,0 35.219-5.906t 14.656-17.5t 4.156-24.5t 8.094-30.844t 21.875-33.25l0,19.031 t 0.438,17.719t 1.531,17.5t 2.844,15.531t 4.594,14.438t 7,11.156t 9.844,9.188t 13.125,5.25t 16.625,2.188
q 23.188,0 39.594-16.406t 16.406-39.594t-16.406-39.594t-39.594-16.406zM 139.781,356q-11.594,0 -19.688-8.094t-8.094-19.688t 8.094-19.906t 19.688-8.313t 19.906,8.313t 8.313,19.906t-8.313,19.688t-19.906,8.094zM 279.781,356q-11.594,0 -19.688-8.094t-8.094-19.688t 8.313-19.906t 19.688-8.313t 19.688,8.313t 8.313,19.906t-8.313,19.688t-19.906,8.094zM 196,188l-182,0 
q-5.688,0 -9.844,4.156t-4.156,9.844l0,28 q0,6.125 4.156,10.063t 9.844,3.938l 182,0 l0-56 zM 196-64l-140,0 q-11.813,0 -19.906,8.313t-8.094,19.688l0,196 l 168,0 l0-224 zM 420,160l0-196 q0-11.375 -8.094-19.688t-19.906-8.313l-140,0 l0,224 l 168,0 z"  />
<glyph unicode="&#xf276;" d="M 420.219-64q-11.594,0 -19.906,8.094t-8.313,19.906l0,391.563 q0,11.813 8.313,19.906t 19.906,8.094t 19.688-8.094t 8.094-19.906l0-391.563 q0-11.813 -8.094-19.906t-19.688-8.094zM 350-64q-5.688,0 -9.844,4.156t-4.156,9.844l0,419.563 q0,6.125 4.156,10.063t 9.844,3.938t 9.844-3.938t 4.156-10.063l0-419.563 q0-5.688 -4.156-9.844t-9.844-4.156zM 280.219-64q-11.594,0 -19.906,8.094
t-8.313,19.906l0,391.563 q0,11.813 8.094,19.906t 19.906,8.094t 19.906-8.094t 8.094-19.906l0-391.563 q0-11.813 -8.094-19.906t-19.688-8.094zM 182-64q-5.688,0 -9.844,4.156t-4.156,9.844l0,419.563 q0,6.125 4.156,10.063t 9.844,3.938t 9.844-3.938t 4.156-10.063l0-419.563 q0-5.688 -4.156-9.844t-9.844-4.156zM 112.219-64q-11.594,0 -19.906,8.094t-8.313,19.906l0,391.563 q0,11.813 8.313,19.906
t 19.688,8.094t 19.688-8.094t 8.313-19.906l0-391.563 q0-11.813 -8.094-19.906t-19.688-8.094zM 28.219-64q-11.594,0 -19.906,8.094t-8.313,19.906l0,391.563 q0,11.813 8.094,19.906t 19.906,8.094t 19.906-8.094t 8.094-19.906l0-391.563 q0-11.813 -8.094-19.906t-19.688-8.094z"  />
<glyph unicode="&#xf296;" d="M 392,160l0-154 q0-5.688 -4.156-9.844t-9.844-4.156l-28,0 l-63,63l-119-119l-168,448l 448-168zM 364,160l-308,168l 308-308l0,140 z"  />
<glyph unicode="&#x20;" horiz-adv-x="224" />
<glyph class="hidden" unicode="&#xf000;" d="M0,384L 448 -64L0 -64 z" horiz-adv-x="0" />
</font>
</defs>
</svg>
